<svg width="135" height="26" viewBox="0 0 135 26" fill="none" xmlns="http://www.w3.org/2000/svg">
<g clip-path="url(#clip0_1730_1675)">
<path d="M38.8687 10.1087C38.6776 9.75029 37.8415 8.24477 35.5959 8.24477C33.5175 8.24477 32.0363 10.0132 32.0363 12.2356C32.0363 14.458 33.5175 16.2264 35.6198 16.2264C37.8893 16.2264 38.7493 14.7448 38.9165 14.3624H40.971C40.8516 15.151 39.6571 18.1382 35.6198 18.1382C32.4186 18.1382 29.9102 15.5573 29.9102 12.2356C29.9102 8.91389 32.3947 6.33301 35.5959 6.33301C39.681 6.33301 40.7799 9.27235 40.971 10.1087H38.8687Z" fill="#FF5200"/>
<path d="M43.3596 6.5957H45.438V15.0792L51.9838 6.5957H54.0383V17.8751H51.9838V9.31997L45.438 17.8751H43.3596V6.5957Z" fill="#FF5200"/>
<path d="M60.4887 8.48357H55.9258V6.5957H67.1061V8.48357H62.5432V17.8751H60.4887V8.48357Z" fill="#FF5200"/>
<path d="M68.9932 6.5957H71.0477V15.0792L77.5934 6.5957H79.6718V17.8751H77.5934V9.31997L71.0477 17.8751H68.9932V6.5957Z" fill="#FF5200"/>
<path d="M84.5457 6.5957H92.9309V17.8512H90.8525V8.48357H86.1941L85.7641 13.0001C85.4296 16.4652 84.5218 18.0424 82.1328 18.0424H81.5117V16.1784H81.7745C83.3273 16.1784 83.6379 15.4376 83.9007 12.8806L84.5457 6.5957Z" fill="#FF5200"/>
<path d="M96.1794 6.5957H98.2578V15.0792L104.804 6.5957H106.882V17.8751H104.804V9.31997L98.2578 17.8751H96.1794V6.5957Z" fill="#FF5200"/>
<path d="M110.131 6.5957H112.209V11.2078H118.516V6.5957H120.594V17.8751H118.516V13.0718H112.209V17.8751H110.131V6.5957Z" fill="#FF5200"/>
<path d="M123.819 6.5957H125.826V11.4946L131.751 6.5957H134.713L128.048 12.0203L135 17.8751H132.061L125.826 12.7133V17.8751H123.819V6.5957Z" fill="#FF5200"/>
<path d="M18.4189 21.3881L6.13962 23.7061C2.93842 24.3036 0 21.8661 0 18.6161V5.16202C0 1.93592 2.93842 -0.501584 6.11573 0.095842L18.395 2.41386C20.2106 2.74842 21.5484 4.34952 21.5484 6.21349V17.5885C21.5484 19.4286 20.2345 21.0297 18.4189 21.3881Z" fill="#FF5200"/>
<path d="M6.68934 16.6084V7.59919C6.68934 7.16904 7.07157 6.85838 7.4777 6.90618L16.508 8.24441V6.23706L7.88382 4.89882C6.21155 4.63596 4.68262 5.9264 4.68262 7.64699V16.5845C4.68262 18.2812 6.21155 19.5955 7.88382 19.3326L16.508 17.9705V15.9632L7.45381 17.3253C7.07158 17.3731 6.68934 17.0385 6.68934 16.6084Z" fill="white"/>
<path d="M30.3633 21.8418H31.9161C32.6089 21.8418 32.9672 22.1525 32.9672 22.7021C32.9672 23.0366 32.7045 23.2756 32.4656 23.3473C32.7761 23.4429 33.0389 23.7058 33.0389 24.0881C33.0389 24.6378 32.6806 24.9962 31.94 24.9962H30.3633V21.8418ZM30.7933 22.248V23.18H31.9161C32.3222 23.18 32.5372 23.0128 32.5372 22.7021C32.5372 22.3914 32.3222 22.2241 31.9161 22.2241H30.7933V22.248ZM30.7933 23.5863V24.6139H31.94C32.3939 24.6139 32.6089 24.4227 32.6089 24.0881C32.6089 23.7536 32.3939 23.5624 31.94 23.5624H30.7933V23.5863Z" fill="#FF5200"/>
<path d="M34.7357 23.5148C35.3568 23.5148 35.6196 23.8254 35.6196 24.2556C35.6196 24.6379 35.3568 24.9964 34.7596 24.9964H33.6846V22.7979H34.0907V23.5148H34.7357ZM34.0907 23.8732V24.6379H34.7118C35.0224 24.6379 35.2135 24.5184 35.2135 24.2556C35.2135 24.0166 35.0463 23.8732 34.7118 23.8732H34.0907ZM36.0019 22.8217H36.408V25.0203H36.0019V22.8217Z" fill="#FF5200"/>
<path d="M39.3696 23.9451C39.3696 24.5664 38.9157 25.0443 38.2229 25.0443C37.5062 25.0443 37.0762 24.5664 37.0762 23.8495C37.0762 23.6344 37.0762 23.491 37.1001 23.2043C37.1478 22.4635 37.4584 22.0094 38.3184 21.8899L39.2023 21.7227V22.105L38.3184 22.2723C37.7451 22.3679 37.5301 22.6068 37.4823 23.2282C37.6256 23.0131 37.8884 22.8458 38.2945 22.8458C38.9157 22.8458 39.3696 23.276 39.3696 23.9451ZM38.9396 23.9451C38.9396 23.5388 38.6768 23.2043 38.199 23.2043C37.7212 23.2043 37.4584 23.5388 37.4584 23.9451C37.4584 24.3513 37.7212 24.6859 38.199 24.6859C38.6768 24.6859 38.9396 24.3513 38.9396 23.9451Z" fill="#FF5200"/>
<path d="M39.9668 22.8218H40.349V24.4707L41.6391 22.8218H42.0452V25.0203H41.6391V23.3475L40.349 25.0203H39.9668V22.8218Z" fill="#FF5200"/>
<path d="M43.1923 26H42.7861V22.8217H43.1923V23.1801C43.24 23.0607 43.5028 22.75 44.0045 22.75C44.6017 22.75 45.0795 23.1801 45.0795 23.8971C45.0795 24.6379 44.5778 25.0441 44.0045 25.0441C43.5267 25.0441 43.2639 24.7335 43.1923 24.6379V26ZM43.9089 24.6857C44.3628 24.6857 44.6495 24.3511 44.6495 23.8971C44.6495 23.4669 44.3628 23.1085 43.9089 23.1085C43.455 23.1085 43.1684 23.443 43.1684 23.8971C43.1684 24.3511 43.455 24.6857 43.9089 24.6857Z" fill="#FF5200"/>
<path d="M47.3732 24.6379C47.3015 24.7574 47.0865 25.068 46.5848 25.068C46.0114 25.068 45.5098 24.6379 45.5098 23.921C45.5098 23.2041 46.0114 22.7739 46.5848 22.7739C47.0626 22.7739 47.3015 23.0607 47.3732 23.2041V22.8456H47.7793V25.0441H47.3732V24.6379ZM46.6565 23.1324C46.2026 23.1324 45.9159 23.4669 45.9159 23.921C45.9159 24.3511 46.2026 24.7096 46.6565 24.7096C47.0865 24.7096 47.3732 24.375 47.3732 23.921C47.3732 23.4669 47.0865 23.1324 46.6565 23.1324Z" fill="#FF5200"/>
<path d="M50.5982 23.9687H48.7587C48.7826 24.3749 49.0692 24.7095 49.4992 24.7095C49.9293 24.7095 50.1204 24.4705 50.1443 24.3988H50.5504C50.5265 24.59 50.2398 25.0679 49.4992 25.0679C48.8064 25.0679 48.3525 24.5661 48.3525 23.9209C48.3525 23.2517 48.8303 22.7738 49.4754 22.7738C50.1204 22.7499 50.5982 23.2279 50.5982 23.9687ZM48.7826 23.6102H50.1443C50.0487 23.2756 49.8098 23.0845 49.4754 23.0845C49.117 23.1084 48.8781 23.2995 48.7826 23.6102Z" fill="#FF5200"/>
<path d="M51.1719 22.8218H51.7213L52.5814 24.5424L53.4653 22.8218H53.9908V25.0203H53.5847V23.2758L52.7008 25.0203H52.438L51.5541 23.2997V25.0203H51.1719V22.8218Z" fill="#FF5200"/>
<path d="M56.0924 22.8218H57.7407V25.0203H57.3346V23.1802H56.4268L56.3313 24.0644C56.2596 24.7335 56.0924 25.0442 55.6146 25.0442H55.4951V24.6857H55.5429C55.8535 24.6857 55.9012 24.5424 55.949 24.0405L56.0924 22.8218Z" fill="#FF5200"/>
<path d="M59.1267 26.0001H58.6967L59.1745 24.9725L58.1711 22.8218H58.625L59.3895 24.4946L60.1301 22.8218H60.5601L59.1267 26.0001Z" fill="#FF5200"/>
<path d="M62.5428 24.1839C62.495 24.2078 62.4234 24.2078 62.3756 24.2078C62.2561 24.2317 62.1128 24.2317 61.9217 24.2317C61.3244 24.2317 60.99 23.9927 60.99 23.3953V22.8218H61.3961V23.3475C61.3961 23.6821 61.5156 23.8732 61.9217 23.8732C62.1128 23.8732 62.28 23.8494 62.3756 23.8494L62.5428 23.8255V22.8218H62.9489V25.0203H62.5428V24.1839Z" fill="#FF5200"/>
<path d="M64.0958 22.8218V24.638H65.1231V22.8218H65.5292V24.638H66.5564V22.8218H66.9626V25.0203H63.6897V22.8218H64.0958Z" fill="#FF5200"/>
<path d="M69.8054 23.9687H67.9659C67.9898 24.3749 68.2765 24.7095 68.7065 24.7095C69.1365 24.7095 69.3276 24.4705 69.3515 24.3988H69.7577C69.7338 24.59 69.4471 25.0679 68.7065 25.0679C68.0376 25.0679 67.5598 24.5661 67.5598 23.9209C67.5598 23.2517 68.0376 22.7738 68.6826 22.7738C69.3276 22.7499 69.8054 23.2279 69.8054 23.9687ZM67.9898 23.6102H69.3515C69.256 23.2756 69.0171 23.0845 68.6826 23.0845C68.3243 23.1084 68.0854 23.2995 67.9898 23.6102Z" fill="#FF5200"/>
<path d="M72.481 23.9687H70.6415C70.6654 24.3749 70.952 24.7095 71.382 24.7095C71.8121 24.7095 72.0032 24.4705 72.0271 24.3988H72.4332C72.4093 24.59 72.1226 25.0679 71.382 25.0679C70.7131 25.0679 70.2354 24.5661 70.2354 23.9209C70.2354 23.2517 70.7131 22.7738 71.3582 22.7738C72.0032 22.7499 72.481 23.2279 72.481 23.9687ZM70.6654 23.6102H72.0271C71.9315 23.2756 71.6926 23.0845 71.3582 23.0845C70.9998 23.1084 70.7609 23.2995 70.6654 23.6102Z" fill="#FF5200"/>
<path d="M73.7236 25.6655V24.638H73.9864C74.1298 24.4707 74.1775 24.1839 74.2492 23.6343L74.3448 22.8218H75.9693V24.6619H76.3754V25.6894H76.017V25.0203H74.082V25.6894H73.7236V25.6655ZM75.587 23.1802H74.6792L74.6314 23.6582C74.5598 24.16 74.512 24.4468 74.3925 24.638H75.587V23.1802Z" fill="#FF5200"/>
<path d="M77.2589 22.8218H78.9073V25.0203H78.5012V23.1802H77.5933L77.4978 24.0644C77.4261 24.7335 77.2589 25.0442 76.7811 25.0442H76.6855V24.6857H76.7333C77.0439 24.6857 77.0917 24.5424 77.1394 24.0405L77.2589 22.8218Z" fill="#FF5200"/>
<path d="M81.1054 25.0203V24.2317H80.4604L79.9348 25.0203H79.457L80.0304 24.16C79.672 24.0644 79.5048 23.8254 79.5048 23.4909C79.5048 23.1324 79.7437 22.7979 80.2932 22.7979H81.5115V24.9964H81.1054V25.0203ZM81.1054 23.8493V23.1802H80.3409C80.0782 23.1802 79.9348 23.2758 79.9348 23.4909C79.9348 23.7059 80.0782 23.8493 80.3409 23.8493H81.1054Z" fill="#FF5200"/>
<path d="M83.9005 23.1802H83.0166V22.8218H85.2144V23.1802H84.3066V25.0203H83.9005V23.1802Z" fill="#FF5200"/>
<path d="M87.7222 23.9687H85.8827C85.9066 24.3749 86.1933 24.7095 86.6233 24.7095C87.0533 24.7095 87.2444 24.4705 87.2683 24.3988H87.6744C87.6505 24.59 87.3638 25.0679 86.6233 25.0679C85.9544 25.0679 85.4766 24.5661 85.4766 23.9209C85.4766 23.2517 85.9544 22.7738 86.5994 22.7738C87.2683 22.7499 87.7222 23.2279 87.7222 23.9687ZM85.9305 23.6102H87.2922C87.1966 23.2756 86.9577 23.0845 86.6233 23.0845C86.2649 23.1084 86.026 23.2995 85.9305 23.6102Z" fill="#FF5200"/>
<path d="M90.518 23.9451C90.518 24.5664 90.0641 25.0443 89.3713 25.0443C88.6546 25.0443 88.2246 24.5664 88.2246 23.8495C88.2246 23.6344 88.2246 23.491 88.2485 23.2043C88.2963 22.4635 88.6068 22.0094 89.4669 21.8899L90.3508 21.7227V22.105L89.4669 22.2723C88.8935 22.3679 88.6785 22.6068 88.6307 23.2282C88.7741 23.0131 89.0369 22.8458 89.443 22.8458C90.0641 22.8458 90.518 23.276 90.518 23.9451ZM90.1119 23.9451C90.1119 23.5388 89.8491 23.2043 89.3713 23.2043C88.8935 23.2043 88.6307 23.5388 88.6307 23.9451C88.6307 24.3513 88.8935 24.6859 89.3713 24.6859C89.8491 24.6859 90.1119 24.3513 90.1119 23.9451Z" fill="#FF5200"/>
<path d="M92.5722 25.0203V24.2317H91.9272L91.4016 25.0203H90.9238L91.4972 24.16C91.1388 24.0644 90.9716 23.8254 90.9716 23.4909C90.9716 23.1324 91.2105 22.7979 91.76 22.7979H92.9783V24.9964H92.5722V25.0203ZM92.5722 23.8493V23.1802H91.8077C91.545 23.1802 91.4016 23.2758 91.4016 23.4909C91.4016 23.7059 91.545 23.8493 91.8077 23.8493H92.5722Z" fill="#FF5200"/>
</g>
<defs>
<clipPath id="clip0_1730_1675">
<rect width="135" height="26" fill="white"/>
</clipPath>
</defs>
</svg>
