<svg width="122" height="23" viewBox="0 0 122 23" fill="none" xmlns="http://www.w3.org/2000/svg">
<path d="M57.3293 19.4785H59.7517L63.1284 6.6674V19.4785H65.8444V2.54688H62.1007L58.724 14.9834L55.3474 2.54688H51.5303V19.4785H53.8793V6.6674L57.3293 19.4785ZM77.2222 11.0876C77.2222 8.09085 75.7541 6.96707 72.7445 6.96707C70.8359 6.96707 69.3678 7.56642 68.487 8.09085V10.4882C69.221 9.88889 70.9093 9.28955 72.3774 9.28955C73.7722 9.28955 74.3594 9.81398 74.3594 11.0876V11.7619H73.919C69.588 11.7619 67.6061 13.2602 67.6061 15.7325C67.6061 18.2049 69.0742 19.6283 71.2764 19.6283C72.9647 19.6283 73.6987 19.1039 74.2126 18.5045H74.3594C74.3594 18.8042 74.5062 19.2537 74.5796 19.4785H77.369C77.2956 18.5045 77.2222 17.4557 77.2222 16.4817V11.0876ZM74.3594 16.5566C73.9924 17.0811 73.3317 17.5306 72.304 17.5306C71.1296 17.5306 70.5423 16.7814 70.5423 15.7325C70.5423 14.3091 71.4966 13.7847 73.9924 13.7847H74.4328L74.3594 16.5566ZM82.1404 7.19183H79.4978V22.9996H82.3606V18.055C83.0947 19.1788 84.1223 19.7032 85.3702 19.7032C88.1596 19.7032 90.0682 17.4557 90.0682 13.3351C90.0682 9.21463 88.233 6.96707 85.517 6.96707C84.1957 6.96707 83.0947 7.56642 82.2872 8.76512L82.1404 7.19183ZM84.5628 17.4557C83.0947 17.4557 82.2872 16.1821 82.2872 13.4101C82.2872 10.5632 83.0947 9.28955 84.7096 9.28955C86.2511 9.28955 87.0586 10.5632 87.0586 13.3351C87.0586 16.1821 86.2511 17.4557 84.5628 17.4557ZM98.9503 19.4785H102.18L97.629 12.8856L101.666 7.19183H98.8034L94.7661 12.8856V7.19183H91.9033V19.4785H94.7661V13.485L98.9503 19.4785ZM111.723 18.6544V16.257C110.842 16.8563 109.374 17.3808 107.979 17.3808C105.924 17.3808 105.116 16.4068 104.97 14.3091H111.796V12.7358C111.796 8.46544 109.961 6.89215 107.098 6.89215C103.648 6.89215 101.96 9.58922 101.96 13.3351C101.96 17.6055 104.015 19.7032 107.612 19.7032C109.594 19.7032 110.915 19.2537 111.723 18.6544ZM107.098 9.28955C108.493 9.28955 108.933 10.4882 108.933 11.9866V12.2114H104.97C105.043 10.2635 105.777 9.28955 107.098 9.28955ZM122 9.5143V7.19183H112.457V9.5143H115.834V19.4785H118.696V9.5143H122Z" fill="black"/>
<path d="M11.0108 22.4756C17.0919 22.4756 22.0217 17.4442 22.0217 11.2378C22.0217 5.03133 17.0919 0 11.0108 0C4.92972 0 0 5.03133 0 11.2378C0 17.4442 4.92972 22.4756 11.0108 22.4756Z" fill="#FC3F1D"/>
<path d="M12.6259 6.29316H11.5248C9.61624 6.29316 8.66197 7.2671 8.66197 8.76548C8.66197 10.4137 9.32262 11.2378 10.7173 12.2117L11.8184 13.0358L8.66197 18.0554H6.09277L9.1024 13.4853C7.34067 12.2117 6.3864 11.013 6.3864 8.91531C6.3864 6.29316 8.14813 4.49512 11.5248 4.49512H14.9014V17.9805H12.6993L12.6259 6.29316Z" fill="white"/>
<path fill-rule="evenodd" clip-rule="evenodd" d="M44.6479 15.7903C42.9399 19.7327 39.0779 22.4756 34.5741 22.4756C30.7638 22.4756 27.3841 20.5123 25.4047 17.5204L29.2151 12.3617L28.481 17.6809L32.5183 19.1044L37.4365 11.0881C37.2163 12.5864 36.8493 16.0327 40.0791 17.0815C41.6866 17.5809 43.2275 16.986 44.6479 15.7903ZM45.3758 9.04097C43.7986 11.4654 42.2803 13.1776 41.4738 12.961C40.0791 12.5864 41.327 8.0164 42.1345 5.09458V5.01966L37.6567 3.44637L32.2981 12.3617L33.0322 7.49197L29.1417 6.14344L23.7399 13.369C23.6157 12.6792 23.5547 11.9667 23.5633 11.2378C23.5633 5.01954 28.4815 0 34.5741 0C39.9299 0 44.3781 3.8788 45.3758 9.04097Z" fill="#FED42B"/>
<path fill-rule="evenodd" clip-rule="evenodd" d="M25.4048 17.5204L29.2152 12.3616L28.4811 17.6808L32.5184 19.1043L37.4366 11.088C37.2164 12.5864 36.8494 16.0326 40.0792 17.0815C41.6867 17.5808 43.2276 16.9859 44.648 15.7902C45.2506 14.3994 45.5851 12.8593 45.5851 11.2377C45.5851 10.4856 45.5131 9.75112 45.3759 9.04089C43.7987 11.4653 42.2804 13.1776 41.4739 12.9609C40.0792 12.5864 41.3271 8.01632 42.1346 5.0945V5.01958L37.6568 3.44629L32.2982 12.3616L33.0323 7.49189L29.1418 6.14336L23.74 13.3689C24.0127 14.8835 24.5902 16.289 25.4048 17.5204Z" fill="black"/>
</svg>
