<svg viewBox="0 0 196 51"  xmlns="http://www.w3.org/2000/svg">
	<path d="M0 51H52.0008V29.678H34.6672L41.865 36.7373H44.8029V43.7966H17.4805L44.8029 17V22.4746H52.0008V0L0 51Z"></path>
	<path d="M57.9922 0V51H64.9701V17L77.0748 29.2458V51H84.0527V29.2458L96.1573 17V51H102.993V0L80.4925 22.7627L57.9922 0Z"></path>
	<path d="M108.997 51H116.21V17L130.784 31.2627V51H137.998V0L130.784 7.05932V21.322L108.997 0V51Z"></path>
	<path d="M143.999 51H196L174.259 29.678H153.988L161.186 36.7373H171.321L178.519 43.7966H151.197V17L156.779 22.4746H166.915L143.999 0V51Z"></path>
</svg>
