<svg width="86" height="54" fill="none" xmlns="http://www.w3.org/2000/svg"><path d="M55.681 5.984h-.291v2.14h.097c.729 0 1.117-.243 1.117-1.021 0-.681-.194-1.12-.923-1.12ZM65.982 6.032a.77.77 0 0 0-.583.244c-.195.194-.535.73-.535 2.383 0 1.655.389 2.19.535 2.384a.77.77 0 0 0 .583.244.769.769 0 0 0 .583-.244c.194-.194.534-.73.534-2.383 0-1.655-.34-2.19-.534-2.384a.896.896 0 0 0-.583-.244Z" fill="#000"/><path d="M0 0v15.081h86V0H0Zm24.488 2.432c.049.195.146.39.292.487.097.097.243.195.534.195.292 0 .437-.098.535-.195.145-.097.242-.34.242-.487l1.215.39a2.088 2.088 0 0 1-.68 1.021c-.437.292-1.069.34-1.312.34-.243 0-.826 0-1.312-.34-.243-.194-.583-.535-.68-1.021l1.166-.39ZM9.183 6.178H7.58v6.617H5.976V4.67h3.207v1.508Zm8.454 6.617h-3.255V4.67h3.207v1.508h-1.555V7.93h1.409v1.508h-1.41v1.8h1.653v1.557h-.049Zm10.058 0H26.14V9.243c0-.68.049-1.216.097-1.508l-1.797 5.06h-1.458V4.67h1.555v3.503c0 .438-.049.973-.146 1.46l1.846-4.963h1.458v8.125Zm10.738 0-.389-5.838a21.258 21.258 0 0 1-.243 1.848l-.729 3.94h-1.214l-.73-3.648a9.089 9.089 0 0 1-.194-1.216l-.097-.924-.243 5.838h-1.7l.68-8.125h2.09l.777 4.768.631-4.768h2.138l.826 8.125h-1.603Zm10.057 0h-3.255V4.67h3.207v1.508h-1.604V7.93h1.41v1.508h-1.41v1.8h1.652v1.557Zm6.9-3.309v3.309h-1.604V4.67h1.944c.486 0 .923 0 1.36.244.73.437 1.118 1.313 1.118 2.14 0 1.751-1.215 2.53-2.818 2.432Zm12.438 2.627a2.481 2.481 0 0 1-1.846.828 2.481 2.481 0 0 1-1.846-.828c-.875-.924-.972-2.286-.972-3.356 0-1.07.097-2.433.972-3.357a2.481 2.481 0 0 1 1.846-.827c.486 0 1.215.146 1.846.827.875.924.972 2.286.972 3.357.049 1.07-.049 2.432-.972 3.357Zm11.661.682-.388-5.838a21.258 21.258 0 0 1-.243 1.848l-.73 3.94h-1.214l-.729-3.648c-.097-.389-.194-.778-.194-1.216l-.097-.924-.243 5.838h-1.7l.68-8.125h2.089l.777 4.768.632-4.768h2.138l.826 8.125h-1.604ZM13.994 35.173c-.146-2.481-.34-4.962-.438-7.395-.048-.778-.097-1.556-.097-2.383-.048-.828.049-1.654-.097-2.482-.632 4.136-1.506 8.173-2.284 12.26H9.475c-.875-4.087-1.846-8.124-2.332-12.26l-.68 12.26H4.228l1.457-17.854h2.04l1.556 7.297c.097.438.194.876.291 1.265.243 1.46.486 2.87.68 4.33.049-.876.243-1.703.39-2.53.096-.632.193-1.314.29-1.946.098-.438.195-.827.244-1.265l1.409-7.151h2.089l1.652 17.854h-2.332ZM31.193 34.297c-.874.876-1.943 1.12-2.866 1.12-1.36 0-2.284-.487-2.867-1.12-1.652-1.702-1.75-5.351-1.75-7.978 0-2.724.098-6.422 1.75-8.124.632-.633 1.506-1.12 2.867-1.12 1.36 0 2.235.487 2.866 1.12 1.652 1.654 1.75 5.302 1.75 8.075 0 2.627-.098 6.325-1.75 8.027Zm-4.032-1.556c.34.34.729.437 1.166.437.388 0 .777-.097 1.117-.437.486-.487.972-1.654.972-6.081v-1.314c0-4.135-.583-5.254-.972-5.643-.34-.34-.729-.438-1.117-.438-.438 0-.778.097-1.166.438-.389.389-.972 1.508-.972 5.643v1.314c0 4.427.486 5.594.972 6.08ZM50.823 35.173l-3.11-8.806v8.806h-2.331v-8.806l-3.11 8.806h-2.478l3.547-9.195-3.353-8.66h2.284l3.11 8.223v-8.222h2.332v8.222l3.11-8.222h2.332l-3.353 8.66 3.547 9.194h-2.527ZM60.541 35.173V17.319h6.365v2.043h-3.984v5.692h3.547v2.043h-3.547v6.081h3.984v2.044h-6.365v-.05ZM79.1 19.41v15.714H76.77V19.411h-2.77v-2.092h7.823v2.092H79.1ZM69.53 45.876l-.05 2.773h.05c.242 0 .63 0 .874-.243.291-.292.291-.828.291-1.12 0-.34 0-.924-.34-1.216-.194-.194-.583-.194-.826-.194ZM46.207 47.19h1.263c-.243-1.363-.486-2.725-.631-4.087-.146 1.362-.389 2.724-.632 4.086ZM27.5 45.876l-.048 2.773h.049c.243 0 .631 0 .874-.243.292-.244.292-.828.292-1.12 0-.291 0-.875-.34-1.167-.243-.243-.583-.243-.826-.243ZM62.289 45.438c0 1.46-.097 1.946-.195 2.238-.145.486-.437.827-.631.973h2.186v-6.227h-1.36v3.016ZM13.167 45.876l-.049 2.773h.049c.243 0 .631 0 .874-.243.292-.292.292-.828.292-1.12 0-.34 0-.924-.34-1.216-.243-.194-.583-.194-.826-.194Z" fill="#000"/><path d="M0 37.46V54h86V37.46H0Zm78.032 2.091c.048.146.145.34.243.438.145.146.388.195.534.195.194 0 .389 0 .535-.195a.58.58 0 0 0 .242-.438l.924.39c-.146.389-.34.632-.632.827-.34.243-.729.291-1.069.291-.34 0-.729-.048-1.069-.291-.243-.146-.486-.438-.631-.827l.923-.39Zm-69.82 9.584c-.244.243-.632.487-1.361.487H5.345v-8.125h2.963v.925H6.414v2.53h.194c.389 0 1.117.048 1.603.535.486.486.535 1.264.535 1.848 0 .584-.049 1.314-.535 1.8Zm6.704 0c-.243.243-.631.487-1.36.487H12.05v-8.125h1.069v3.454h.145c.535 0 1.167.049 1.652.535.486.487.535 1.265.535 1.8 0 .584-.049 1.363-.535 1.85Zm2.138.438h-1.069v-8.076h1.07v8.076Zm6.414-7.103h-1.215v7.152h-1.069V42.47h-1.263v-.973h3.547v.973Zm5.83 6.665c-.243.243-.68.487-1.36.487h-1.555v-8.125h1.069v3.454h.146c.486 0 1.166.049 1.652.535.486.487.534 1.265.534 1.85 0 .583-.048 1.313-.486 1.8Zm11.516.438-1.507-3.99v3.99h-1.069v-8.076h1.07v3.698l1.506-3.698h1.117l-1.652 3.94 1.75 4.185h-1.215v-.049Zm7.142 0-.34-1.557h-1.604l-.291 1.557h-1.069l1.75-8.124h.874l1.7 8.124h-1.02Zm8.551 0-1.409-3.99v3.99H54.03v-3.99l-1.409 3.99h-1.117l1.603-4.184-1.506-3.94h1.069l1.409 3.746v-3.746h1.069v3.794l1.409-3.746h1.069l-1.506 3.94 1.603 4.185h-1.215v-.049Zm8.892 1.605h-.972v-1.556H61.22v1.556h-.971v-2.53c.388-.194.583-.437.68-.632.291-.438.389-1.119.389-2.238v-4.33h3.45v7.2h.63v2.53Zm5.879-2.043c-.243.243-.632.487-1.36.487H68.41v-8.125h1.118v3.454h.146c.534 0 1.166.049 1.652.535.485.487.534 1.265.534 1.8-.049.584-.097 1.363-.583 1.85Zm2.138.438h-1.118v-8.076h1.118v8.076Zm7.288 0h-1.069v-3.6c0-.632.146-1.995.194-2.627-.291.973-.388 1.508-.631 2.19l-1.312 4.037h-.972v-8.076h1.069v3.308c0 .633-.049 1.8-.243 2.87.34-1.07.437-1.507.729-2.432l1.215-3.746h.971v8.076h.049Z" fill="#000"/><path d="M6.51 45.876h-.048v2.773h.097c.194 0 .583 0 .826-.243.243-.244.292-.682.292-1.12 0-.389-.049-.924-.34-1.167a1.636 1.636 0 0 0-.826-.243Z" fill="#000"/></svg>