<svg width="26" height="14" viewBox="0 0 26 14" fill="none" xmlns="http://www.w3.org/2000/svg">
<path fill-rule="evenodd" clip-rule="evenodd" d="M25.4042 0.9495C25.5848 0.40309 25.4042 0.00127934 24.5438 0.00127934H21.6997C20.9763 0.00127934 20.6432 0.348064 20.4618 0.730679C20.4618 0.730679 19.015 3.92724 16.9662 6.00347C16.3035 6.60427 16.0022 6.79558 15.6401 6.79558C15.4594 6.79558 15.1976 6.60427 15.1976 6.05786V0.948859C15.1976 0.293039 14.988 0.000639668 14.3853 0.000639668H9.91507C9.46339 0.000639668 9.19097 0.305196 9.19097 0.593117C9.19097 1.21503 10.2157 1.35835 10.3209 3.10635V6.90371C10.3209 7.73612 10.155 7.88712 9.79368 7.88712C8.82963 7.88712 6.48372 4.67648 5.09269 1.0026C4.82027 0.288561 4.54644 0 3.81951 0H0.975345C0.162322 0 0 0.346785 0 0.7294C0 1.41273 0.964053 4.79996 4.48998 9.28065C6.84083 12.3403 10.1522 13.9994 13.1658 13.9994C14.9739 13.9994 15.1976 13.6308 15.1976 12.9961V10.6838C15.1976 9.94671 15.3691 9.80019 15.9415 9.80019C16.3635 9.80019 17.0869 9.9915 18.7743 11.4669C20.7032 13.2156 21.0207 14 22.1055 14H24.9496C25.7627 14 26.1685 13.6315 25.9342 12.9046C25.678 12.1803 24.757 11.1285 23.5346 9.88273C22.8719 9.17252 21.8768 8.40729 21.5755 8.02468C21.1534 7.53265 21.2741 7.31447 21.5755 6.87747C21.5769 6.87811 25.0428 2.45181 25.4042 0.9495Z" />
</svg>
