<svg width="23" height="16" viewBox="0 0 23 16" fill="none" xmlns="http://www.w3.org/2000/svg">
<g clip-path="url(#clip0_2490_2418)">
<path fill-rule="evenodd" clip-rule="evenodd" d="M20.4608 0.483977C21.4499 0.747965 22.2323 1.52526 22.4981 2.50788C22.9852 4.29713 23 8.00762 23 8.00762C23 8.00762 23 11.7328 22.5128 13.5074C22.2471 14.49 21.4647 15.2673 20.4756 15.5313C18.6893 16.0152 11.5 16.0152 11.5 16.0152C11.5 16.0152 4.31065 16.0152 2.52439 15.5313C1.5353 15.2673 0.752888 14.49 0.487163 13.5074C0 11.7181 0 8.00762 0 8.00762C0 8.00762 0 4.29713 0.472401 2.52255C0.738126 1.53993 1.52054 0.762631 2.50963 0.498643C4.29589 0.014666 11.4852 0 11.4852 0C11.4852 0 18.6746 0 20.4608 0.483977ZM15.1581 8.00777L9.194 11.4396V4.57593L15.1581 8.00777Z" />
</g>
<defs>
<clipPath id="clip0_2490_2418">
<rect width="23" height="16" fill="white"/>
</clipPath>
</defs>
</svg>
