<?xml version="1.0" standalone="no"?>
<!DOCTYPE svg PUBLIC "-//W3C//DTD SVG 1.1//EN" "http://www.w3.org/Graphics/SVG/1.1/DTD/svg11.dtd" >
<svg xmlns="http://www.w3.org/2000/svg" xmlns:xlink="http://www.w3.org/1999/xlink" version="1.1">
<metadata></metadata>
<defs>
<font id="futura_newbook" horiz-adv-x="568" >
<font-face units-per-em="1000" ascent="800" descent="-200" />
<missing-glyph horiz-adv-x="233" />
<glyph horiz-adv-x="0" />
<glyph unicode="&#xd;" horiz-adv-x="333" />
<glyph unicode=" "  horiz-adv-x="233" />
<glyph unicode="&#x09;" horiz-adv-x="233" />
<glyph unicode="&#xa0;" horiz-adv-x="233" />
<glyph unicode="!" horiz-adv-x="280" d="M90 40q0 20 15 35t35 15t35 -15t15 -35t-15 -35t-35 -15t-35 15t-15 35zM104 135v532h72v-532h-72z" />
<glyph unicode="&#x22;" horiz-adv-x="330" d="M54 667h80l-13 -268h-54zM196 667h80l-13 -268h-54z" />
<glyph unicode="#" horiz-adv-x="600" d="M34 207l10 66h110l20 133h-110l10 66h110l30 195h73l-30 -195h136l30 195h73l-30 -195h110l-10 -66h-110l-20 -133h110l-10 -66h-110l-32 -207h-73l32 207h-136l-32 -207h-73l32 207h-110zM227 273h136l20 133h-136z" />
<glyph unicode="$" d="M77 160l72 20q7 -53 40 -85q34 -35 78 -37v274q-72 29 -110 65q-46 43 -46 109q0 70 45 117t111 53v87h60v-87q42 -4 76 -28q40 -28 64 -74l-59 -39q-15 30 -38 50q-19 17 -43 21v-222q79 -31 117 -70q47 -48 47 -121q0 -72 -44 -130.5t-120 -70.5v-93h-60v89 q-75 3 -128 54q-46 46 -62 118zM185 507q0 -35 25 -60q22 -22 57 -36v195q-39 -6 -60.5 -34t-21.5 -65zM327 62q40 11 64 48t24 80q0 47 -32 79q-21 21 -56 35v-242z" />
<glyph unicode="%" horiz-adv-x="710" d="M33 528q0 61 42 103t103 42t103 -42t42 -103t-42 -103t-103 -42t-103 42t-42 103zM93 528q0 -37 25 -63.5t60 -26.5q36 0 60.5 26.5t24.5 63.5t-24.5 63.5t-60.5 26.5q-35 0 -60 -26.5t-25 -63.5zM141 10l389 670l39 -22l-389 -671zM387 138q0 61 42 103t103 42t103 -42 t42 -103t-42 -103t-103 -42t-103 42t-42 103zM447 138q0 -37 25 -63.5t60 -26.5q36 0 60.5 26.5t24.5 63.5t-24.5 63.5t-60.5 26.5q-35 0 -60 -26.5t-25 -63.5z" />
<glyph unicode="&#x26;" horiz-adv-x="636" d="M54 173q0 78 60 138q31 31 112 83q-66 85 -66 143q0 57 38.5 99t106.5 42q66 0 103.5 -40t37.5 -94q0 -67 -62 -121q-7 -6 -18.5 -14.5t-35.5 -28.5l139 -179q51 54 76 88l54 -45q-33 -45 -85 -99l112 -145h-92l-72 93q-46 -46 -103.5 -75.5t-111.5 -29.5 q-82 0 -137.5 53t-55.5 132zM128 174q0 -50 33.5 -84t84.5 -34q75 0 171 92l-148 191q-53 -33 -94 -69q-47 -42 -47 -96zM230 541q0 -29 27 -66l30 -41l44 34q45 36 45 77q0 33 -21.5 51t-50.5 18q-31 0 -52.5 -21t-21.5 -52z" />
<glyph unicode="'" horiz-adv-x="188" d="M54 667h80l-13 -268h-54z" />
<glyph unicode="(" horiz-adv-x="294" d="M80 288q0 138 28 260q22 94 59 192l63 -29q-33 -87 -51 -173q-25 -121 -25 -252q0 -130 24 -244q18 -88 52 -183l-63 -29q-46 121 -66 226q-21 111 -21 232z" />
<glyph unicode=")" horiz-adv-x="294" d="M64 -141q34 95 52 183q24 114 24 244q0 131 -25 252q-18 86 -51 173l63 29q37 -98 59 -192q28 -122 28 -260q0 -121 -21 -232q-20 -105 -66 -226z" />
<glyph unicode="*" d="M118 585l21 63l116 -43l-5 124h68l-5 -124l116 43l21 -63l-120 -34l77 -97l-54 -39l-69 103l-69 -103l-54 39l77 97z" />
<glyph unicode="+" horiz-adv-x="500" d="M33 300v66h181v172h72v-172h181v-66h-181v-172h-72v172h-181z" />
<glyph unicode="," horiz-adv-x="274" d="M24 -133l82 231l66 -24l-101 -226z" />
<glyph unicode="-" horiz-adv-x="320" d="M50 176v74h220v-74h-220z" />
<glyph unicode="." horiz-adv-x="228" d="M64 40q0 20 15 35t35 15t35 -15t15 -35t-15 -35t-35 -15t-35 15t-15 35z" />
<glyph unicode="/" horiz-adv-x="592" d="M0 -170l514 929l58 -30l-514 -927z" />
<glyph unicode="0" d="M46 333q0 148 67 245q69 100 171 100t171 -100q67 -97 67 -245t-67 -245q-69 -100 -171 -100t-171 100q-67 97 -67 245zM120 333q0 -125 49 -203q46 -74 115 -74t115 74q49 78 49 203t-49 203q-46 74 -115 74t-115 -74q-49 -78 -49 -203z" />
<glyph unicode="1" d="M154 597l39 70h147v-667h-74v597h-112z" />
<glyph unicode="2" d="M50 0l243 281q62 73 78 97q37 53 37 102q0 57 -37 93.5t-96 36.5q-72 0 -111 -59q-21 -32 -22 -79h-74q4 85 50 138q60 68 158 68q89 0 147.5 -56.5t58.5 -142.5q0 -67 -53 -143q-27 -37 -91 -111l-139 -157h282v-68h-431z" />
<glyph unicode="3" d="M64 173h74q5 -41 24 -67q34 -50 103 -50q55 0 93 39.5t38 95.5q0 82 -66 112q-33 16 -76 14v66q43 -3 76 14q56 29 56 99q0 49 -28 81.5t-86 32.5q-56 0 -86 -38q-23 -30 -26 -70h-74q3 53 31 98q50 78 155 78q89 0 138.5 -53t49.5 -127q0 -105 -86 -148 q13 -5 25.5 -13.5t30.5 -26.5t29 -49.5t11 -71.5q0 -91 -58.5 -146t-146.5 -55q-59 0 -110 27.5t-76 87.5q-13 32 -15 70z" />
<glyph unicode="4" d="M20 126l416 578v-510h82v-68h-82v-126h-74v126h-342zM151 194h211v295z" />
<glyph unicode="5" d="M34 108l59 42q15 -30 45 -54q49 -40 108 -40q70 0 117 50t47 121q0 72 -46.5 118t-117.5 46q-63 0 -129 -46l97 322h265v-68h-214l-43 -144q17 4 42 4q99 0 159.5 -66t60.5 -165q0 -108 -70.5 -174t-172.5 -66q-86 0 -149 52q-36 31 -58 68z" />
<glyph unicode="6" d="M54 215q0 76 55 153l227 315l56 -42l-153 -213q28 9 59 9q95 0 155.5 -63t60.5 -157q0 -100 -64.5 -164.5t-164.5 -64.5q-74 0 -128.5 35.5t-78.5 86t-24 105.5zM128 215q0 -68 43.5 -113.5t112.5 -45.5q68 0 112 45.5t44 113.5q0 67 -44.5 110.5t-112.5 43.5t-111.5 -44 t-43.5 -110z" />
<glyph unicode="7" d="M52 23l379 576h-365v68h490l-446 -683z" />
<glyph unicode="8" d="M80 184q0 118 101 163q-81 47 -81 146q0 76 49 130.5t135 54.5t135 -54.5t49 -130.5q0 -99 -81 -146q101 -45 101 -163q0 -83 -53.5 -139.5t-150.5 -56.5t-150.5 56.5t-53.5 139.5zM154 186q0 -57 36 -93.5t94 -36.5t94 36.5t36 93.5q0 56 -36.5 91.5t-93.5 35.5 t-93.5 -35.5t-36.5 -91.5zM170 492q0 -49 32.5 -82t81.5 -33t81.5 33t32.5 82q0 53 -33.5 85.5t-80.5 32.5t-80.5 -32.5t-33.5 -85.5z" />
<glyph unicode="9" d="M54 449q0 100 64.5 164.5t164.5 64.5q74 0 128.5 -35.5t78.5 -86t24 -105.5q0 -77 -55 -153l-227 -314l-56 41l153 213q-29 -9 -59 -9q-95 0 -155.5 63t-60.5 157zM128 451q0 -67 44.5 -110.5t112.5 -43.5t111.5 44t43.5 110q0 68 -43.5 113.5t-112.5 45.5 q-68 0 -112 -45.5t-44 -113.5z" />
<glyph unicode=":" horiz-adv-x="228" d="M64 38q0 20 15 35t35 15t35 -15t15 -35t-15 -35t-35 -15t-35 15t-15 35zM64 375q0 20 15 35t35 15t35 -15t15 -35t-15 -35t-35 -15t-35 15t-15 35z" />
<glyph unicode=";" horiz-adv-x="274" d="M24 -133l82 231l66 -24l-101 -226zM78 375q0 20 15 35t35 15t35 -15t15 -35t-15 -35t-35 -15t-35 15t-15 35z" />
<glyph unicode="&#x3c;" horiz-adv-x="500" d="M33 299v62l434 203v-72l-357 -162l357 -162v-72z" />
<glyph unicode="=" horiz-adv-x="500" d="M33 230v66h434v-66h-434zM33 384v66h434v-66h-434z" />
<glyph unicode="&#x3e;" horiz-adv-x="500" d="M33 96v72l357 162l-357 162v72l434 -203v-62z" />
<glyph unicode="?" horiz-adv-x="436" d="M57 524q0 68 38 108q42 46 122 46q75 0 118 -43q44 -44 44 -118q0 -59 -34 -98q-28 -32 -77 -50q-8 -3 -22.5 -7.5t-26.5 -8.5t-23 -9q-49 -23 -49 -70q0 -32 20 -52q18 -18 49 -18t49 18q24 24 24 67h72q0 -70 -41 -113q-38 -40 -103 -40q-64 0 -104 40t-40 103 q0 86 84 124q20 9 49.5 17.5t34.5 10.5q64 23 64 88q0 46 -26 70q-23 21 -61 21q-41 0 -63 -21q-26 -25 -26 -67q0 -22 6 -42h-74q-4 19 -4 44zM168 38q0 20 15 35t35 15t35 -15t15 -35t-15 -35t-35 -15t-35 15t-15 35z" />
<glyph unicode="@" horiz-adv-x="733" d="M33 331q0 145 100.5 245t246.5 100q131 0 223.5 -82.5t92.5 -213.5q0 -100 -50.5 -168t-112.5 -68q-31 0 -51 18.5t-22 48.5q-46 -71 -125 -71q-63 0 -101.5 46t-38.5 115q0 83 49.5 143t125.5 60q43 0 70.5 -21.5t39.5 -55.5l13 64h52q-38 -161 -47 -249v-8 q3 -46 37 -46q39 0 76 54t37 137q0 111 -77.5 180t-189.5 69q-124 0 -210.5 -86.5t-86.5 -211.5q0 -51 16 -100t50 -94t96 -73t144 -28q110 0 209 46l15 -46q-100 -48 -225 -48q-156 0 -256 96t-100 248zM253 303q0 -51 27.5 -80t65.5 -29q51 0 83 47.5t32 111.5 q0 49 -25 73t-61 24q-51 0 -86.5 -44.5t-35.5 -102.5z" />
<glyph unicode="A" horiz-adv-x="622" d="M8 0l307 699l299 -699h-82l-78 188h-284l-80 -188h-82zM199 258h226l-112 267z" />
<glyph unicode="B" horiz-adv-x="530" d="M86 0v667h120q100 0 153 -42q60 -46 60 -138q0 -86 -66 -131q64 -16 95.5 -64.5t31.5 -103.5q0 -45 -19.5 -83t-48.5 -61q-56 -44 -160 -44h-166zM160 70h85q81 0 117 28q44 32 44 92q0 67 -57 98q-36 20 -113 20h-76v-238zM160 374h56q15 0 29 1.5t33.5 8t34 17.5 t24.5 33t10 51q0 31 -12 53.5t-27 33.5t-36 17t-32 7t-22 1h-58v-223z" />
<glyph unicode="C" horiz-adv-x="646" d="M50 331q0 149 99.5 248t249.5 99q110 0 197 -66v-92q-40 40 -87 62q-57 26 -115 26q-115 0 -191.5 -80.5t-76.5 -197.5q0 -126 83.5 -199t185.5 -73q64 0 124 31q42 21 77 56v-92q-91 -65 -201 -65q-148 0 -246.5 99t-98.5 244z" />
<glyph unicode="D" horiz-adv-x="632" d="M86 0v667h136q154 0 246 -78q114 -95 114 -256q0 -156 -117 -256q-48 -41 -103 -59t-141 -18h-135zM160 70h65q119 0 191 60q90 76 90 203q0 120 -77 192t-204 72h-65v-527z" />
<glyph unicode="E" horiz-adv-x="482" d="M86 0v667h346v-70h-272v-198h264v-70h-264v-259h272v-70h-346z" />
<glyph unicode="F" horiz-adv-x="434" d="M86 0v667h304v-70h-230v-197h222v-70h-222v-330h-74z" />
<glyph unicode="G" horiz-adv-x="758" d="M50 333q0 146 99.5 245.5t248.5 99.5q118 0 204 -66q44 -34 77 -79l-55 -50q-29 41 -63 69q-69 56 -162 56q-119 0 -196 -79t-77 -197q0 -86 42 -150.5t102.5 -94t126.5 -29.5t120.5 30.5t83.5 81.5q25 43 27 95h-198v70h278v-16q0 -124 -64 -211q-89 -120 -248 -120 q-148 0 -247 99.5t-99 245.5z" />
<glyph unicode="H" horiz-adv-x="662" d="M86 0v667h74v-271h342v271h74v-667h-74v326h-342v-326h-74z" />
<glyph unicode="I" horiz-adv-x="246" d="M86 0v667h74v-667h-74z" />
<glyph unicode="J" horiz-adv-x="306" d="M-46 37l41 58q34 -37 76 -37q31 0 50 19q25 25 25 108v482h74v-480q0 -36 -1.5 -57.5t-11 -50.5t-28.5 -49q-39 -42 -106 -42q-76 0 -119 49z" />
<glyph unicode="K" d="M86 0v667h74v-286l284 286h100l-312 -311l322 -356h-102l-273 306l-19 -19v-287h-74z" />
<glyph unicode="L" horiz-adv-x="358" d="M86 0v667h74v-597h184v-70h-258z" />
<glyph unicode="M" horiz-adv-x="863" d="M63 0l111 704l256 -563l261 564l104 -705h-76l-63 464l-227 -492l-224 492l-66 -464h-76z" />
<glyph unicode="N" horiz-adv-x="766" d="M86 0v695l520 -545v517h74v-697l-520 545v-515h-74z" />
<glyph unicode="O" horiz-adv-x="794" d="M50 333q0 148 101 246.5t246 98.5t246 -98.5t101 -246.5q0 -147 -100.5 -246t-246.5 -99t-246.5 99t-100.5 246zM126 333q0 -115 79 -195t192 -80t192 80t79 195t-79 195t-192 80t-192 -80t-79 -195z" />
<glyph unicode="P" horiz-adv-x="456" d="M86 0v667h121q114 0 168 -47q61 -52 61 -143q0 -78 -52.5 -132.5t-158.5 -54.5h-65v-290h-74zM160 360h61q66 0 103.5 32t37.5 89q0 116 -147 116h-55v-237z" />
<glyph unicode="Q" horiz-adv-x="794" d="M50 333q0 148 101 246.5t246 98.5t246 -98.5t101 -246.5q0 -140 -94 -239l98 -101h-96l-54 56q-90 -61 -201 -61q-145 0 -246 99t-101 246zM126 333q0 -115 79 -195t192 -80q81 0 148 44l-161 166h96l117 -120q71 77 71 185q0 114 -79.5 194.5t-191.5 80.5 q-113 0 -192 -80t-79 -195z" />
<glyph unicode="R" horiz-adv-x="502" d="M86 0v667h107q108 0 162 -37q73 -49 73 -148q0 -77 -46.5 -128t-121.5 -56l212 -298h-90l-203 292h-19v-292h-74zM160 358h47q69 0 108 32t39 90q0 68 -53 98q-34 19 -96 19h-45v-239z" />
<glyph unicode="S" horiz-adv-x="518" d="M50 160l72 20q7 -50 40 -85q37 -37 96 -37q64 0 99 38.5t35 93.5q0 48 -33 78q-19 18 -80 46l-60 28q-61 28 -89 55q-46 44 -46 109q0 77 52.5 124.5t134.5 47.5q62 0 107 -30q41 -27 65 -74l-59 -39q-16 31 -39 50q-30 23 -75 23q-50 0 -81 -28.5t-31 -74.5 q0 -34 25 -58q20 -20 70 -42l64 -28q71 -31 103 -63q48 -48 48 -121q0 -91 -60 -148t-151 -57q-90 0 -145 54q-45 44 -62 118z" />
<glyph unicode="T" horiz-adv-x="426" d="M14 597v70h398v-70h-162v-597h-74v597h-162z" />
<glyph unicode="U" horiz-adv-x="646" d="M86 238v429h74v-409q0 -38 1.5 -59t14 -51.5t37.5 -51.5q45 -38 110 -38t110 38q25 21 37.5 51.5t14 51.5t1.5 59v409h74v-429q0 -102 -42 -160q-31 -42 -81.5 -66t-113.5 -24t-113.5 24t-81.5 66q-42 58 -42 160z" />
<glyph unicode="V" horiz-adv-x="556" d="M8 667h82l188 -509l188 509h82l-270 -707z" />
<glyph unicode="W" horiz-adv-x="958" d="M8 667h82l176 -500l209 534l198 -534l195 500h82l-280 -702l-196 534l-210 -534z" />
<glyph unicode="X" horiz-adv-x="504" d="M14 0l197 345l-179 322h84l138 -251l142 251h84l-183 -322l193 -345h-84l-153 274l-155 -274h-84z" />
<glyph unicode="Y" horiz-adv-x="530" d="M8 667h86l170 -298l172 298h86l-221 -380v-287h-74v287z" />
<glyph unicode="Z" horiz-adv-x="536" d="M24 0l364 597h-317v70h441l-364 -597h354v-70h-478z" />
<glyph unicode="[" horiz-adv-x="290" d="M80 -170v899h168v-66h-96v-767h96v-66h-168z" />
<glyph unicode="\" horiz-adv-x="597" d="M20 729l58 30l519 -929l-58 -28z" />
<glyph unicode="]" horiz-adv-x="290" d="M42 -104h96v767h-96v66h168v-899h-168v66z" />
<glyph unicode="^" horiz-adv-x="500" d="M26 365l177 302h94l177 -302h-78l-146 247l-146 -247h-78z" />
<glyph unicode="_" horiz-adv-x="500" d="M0 -68h500v-64h-500v64z" />
<glyph unicode="`" horiz-adv-x="500" d="M114 632l74 34l105 -145l-44 -24z" />
<glyph unicode="a" horiz-adv-x="526" d="M42 208q0 102 58.5 159.5t143.5 57.5q90 0 142 -69v59h72v-415h-72v58q-54 -70 -142 -70q-84 0 -143 58t-59 162zM116 208q0 -69 36.5 -112.5t99.5 -43.5t100.5 45t37.5 110q0 74 -42 114t-96 40q-57 0 -96.5 -40.5t-39.5 -112.5z" />
<glyph unicode="b" horiz-adv-x="526" d="M68 0v729h72v-372q55 68 142 68q93 0 147.5 -65.5t54.5 -154.5q0 -90 -54 -153.5t-145 -63.5t-145 70v-58h-72zM136 206q0 -65 38.5 -109.5t100.5 -44.5q61 0 98 44.5t37 108.5q0 72 -41 114t-95 42t-96 -42t-42 -113z" />
<glyph unicode="c" horiz-adv-x="438" d="M42 205q0 95 63 157.5t159 62.5q72 0 129 -40v-86q-49 62 -130 62q-61 0 -104 -41.5t-43 -113.5t43 -113t103 -41q80 0 134 65v-86q-59 -43 -132 -43q-97 0 -159.5 61.5t-62.5 155.5z" />
<glyph unicode="d" horiz-adv-x="526" d="M42 208q0 102 58.5 159.5t143.5 57.5q90 0 142 -69v373h72v-729h-72v58q-54 -70 -142 -70q-84 0 -143 58t-59 162zM116 208q0 -69 36.5 -112.5t99.5 -43.5t100.5 45t37.5 110q0 74 -42 114t-96 40q-57 0 -96.5 -40.5t-39.5 -112.5z" />
<glyph unicode="e" horiz-adv-x="481" d="M42 205q0 95 54.5 157.5t146.5 62.5q104 0 157 -76q39 -56 39 -143v-13h-323q1 -63 39 -102t93 -39q49 0 85 30q28 24 43 57l60 -33q-21 -40 -51 -67q-57 -51 -138 -51q-84 0 -144.5 54.5t-60.5 162.5zM121 253h244q-9 49 -42.5 78.5t-79.5 29.5q-45 0 -79.5 -30.5 t-42.5 -77.5z" />
<glyph unicode="f" horiz-adv-x="240" d="M30 349v66h40v181q0 83 40 117q32 27 83 27q27 0 51 -9v-70q-22 9 -47 9q-33 0 -46 -22q-9 -15 -9 -60v-173h102v-66h-102v-349h-72v349h-40z" />
<glyph unicode="g" horiz-adv-x="526" d="M42 208q0 101 60 161q58 56 142 56q89 0 142 -69v59h72v-405q0 -109 -40 -163q-57 -77 -166 -77q-92 0 -148 56q-54 54 -54 134h71q0 -50 32 -86q36 -40 100 -40q75 0 110 58q23 37 23 106v60q-54 -70 -142 -70q-86 0 -142 56q-60 60 -60 164zM116 208q0 -79 47 -122 q37 -34 89 -34q56 0 91 35q47 45 47 120t-44 117q-37 37 -94 37q-55 0 -94 -39q-42 -43 -42 -114z" />
<glyph unicode="h" horiz-adv-x="470" d="M68 0v729h72v-362q44 58 119 58q80 0 119 -57q24 -35 24 -111v-257h-72v255q0 51 -19 76q-23 30 -68 30q-46 0 -73 -32q-30 -35 -30 -112v-217h-72z" />
<glyph unicode="i" horiz-adv-x="208" d="M53 572q0 21 15 36t36 15t36 -15t15 -36t-15 -36t-36 -15t-36 15t-15 36zM68 0v415h72v-415h-72z" />
<glyph unicode="j" horiz-adv-x="208" d="M53 572q0 21 15 36t36 15t36 -15t15 -36t-15 -36t-36 -15t-36 15t-15 36zM68 -230v645h72v-645h-72z" />
<glyph unicode="k" horiz-adv-x="422" d="M68 0v729h72v-468l152 154h94l-178 -178l210 -237h-94l-166 189l-18 -18v-171h-72z" />
<glyph unicode="l" horiz-adv-x="208" d="M68 0v729h72v-729h-72z" />
<glyph unicode="m" horiz-adv-x="685" d="M68 0v415h72v-44q37 54 103 54q75 0 113 -67q43 67 125 67q135 0 135 -162v-263h-72v252q0 30 -3.5 50.5t-21 39.5t-49.5 19q-92 0 -92 -130v-231h-72v246q0 115 -75 115q-91 0 -91 -135v-226h-72z" />
<glyph unicode="n" horiz-adv-x="470" d="M68 0v415h72v-48q44 58 119 58q80 0 119 -57q24 -35 24 -111v-257h-72v255q0 51 -19 76q-23 30 -68 30q-46 0 -73 -32q-30 -35 -30 -112v-217h-72z" />
<glyph unicode="o" horiz-adv-x="524" d="M42 206q0 95 62.5 157t157.5 62t157.5 -62t62.5 -157q0 -94 -62.5 -156t-157.5 -62t-157.5 62t-62.5 156zM116 206q0 -72 43 -113t103 -41t103 41t43 113q0 73 -42.5 114t-103.5 41t-103.5 -41.5t-42.5 -113.5z" />
<glyph unicode="p" horiz-adv-x="526" d="M68 -230v645h72v-58q55 68 142 68q93 0 147.5 -65.5t54.5 -154.5q0 -90 -54 -153.5t-145 -63.5t-145 70v-288h-72zM136 206q0 -65 38.5 -109.5t100.5 -44.5q61 0 98 44.5t37 108.5q0 72 -41 114t-95 42t-96 -42t-42 -113z" />
<glyph unicode="q" horiz-adv-x="526" d="M42 208q0 102 58.5 159.5t143.5 57.5q90 0 142 -69v59h72v-645h-72v288q-54 -70 -142 -70q-84 0 -143 58t-59 162zM116 208q0 -69 36.5 -112.5t99.5 -43.5t100.5 45t37.5 110q0 74 -42 114t-96 40q-57 0 -96.5 -40.5t-39.5 -112.5z" />
<glyph unicode="r" horiz-adv-x="296" d="M68 0v415h72v-45q35 55 94 55q30 0 64 -17l-34 -65q-20 14 -42 14q-38 0 -58 -26q-24 -32 -24 -112v-219h-72z" />
<glyph unicode="s" horiz-adv-x="352" d="M36 94l62 26q25 -68 84 -68q33 0 50.5 20t17.5 46q0 14 -4.5 24.5t-15 18.5t-20 13t-27.5 13q-80 35 -101 61q-19 24 -19 61q0 54 33.5 85t87.5 31q79 0 114 -75l-59 -31q-17 42 -58 42q-21 0 -35.5 -12t-14.5 -35q0 -21 13.5 -31.5t53.5 -27.5q79 -33 104 -64 q22 -27 22 -67q0 -63 -40.5 -99.5t-102.5 -36.5q-12 0 -26 2.5t-38.5 11t-46.5 32.5t-34 60z" />
<glyph unicode="t" horiz-adv-x="214" d="M26 349v66h44v150h72v-150h72v-66h-72v-349h-72v349h-44z" />
<glyph unicode="u" horiz-adv-x="466" d="M68 165v250h72v-242q0 -63 20 -89q25 -32 73 -32t73 32q20 26 20 89v242h72v-250q0 -84 -38 -125q-49 -52 -127 -52t-127 52q-38 41 -38 125z" />
<glyph unicode="v" horiz-adv-x="424" d="M8 415h80l124 -280l124 280h80l-204 -442z" />
<glyph unicode="w" horiz-adv-x="682" d="M8 415h80l123 -282l130 314l129 -314l124 282h80l-206 -444l-128 310l-128 -310z" />
<glyph unicode="x" horiz-adv-x="454" d="M8 0l177 222l-151 193h88l107 -141l109 141h88l-152 -194l172 -221h-88l-131 169l-131 -169h-88z" />
<glyph unicode="y" horiz-adv-x="460" d="M8 415h82l147 -297l135 297h80l-305 -645h-80l132 269z" />
<glyph unicode="z" horiz-adv-x="460" d="M8 0l300 349h-242v66h386l-300 -349h288v-66h-432z" />
<glyph unicode="{" horiz-adv-x="501" d="M146 251v58q28 2 44 28q13 22 13 61v195q0 84 48 116q30 20 93 20h27v-61h-15q-43 0 -62 -18t-19 -69v-188q0 -48 -13 -71q-16 -27 -48 -42q32 -15 48 -42q13 -23 13 -71v-189q0 -51 19 -69t62 -18h15v-61h-27q-63 0 -93 20q-48 32 -48 116v196q0 39 -13 61 q-16 26 -44 28z" />
<glyph unicode="|" horiz-adv-x="500" d="M214 -250v1000h72v-1000h-72z" />
<glyph unicode="}" horiz-adv-x="501" d="M130 -109h15q43 0 62 18t19 69v189q0 48 13 71q16 27 48 42q-32 15 -48 42q-13 23 -13 71v188q0 51 -19 69t-62 18h-15v61h27q63 0 93 -20q48 -32 48 -116v-195q0 -39 13 -61q16 -26 44 -28v-58q-28 -2 -44 -28q-13 -22 -13 -61v-196q0 -84 -48 -116q-30 -20 -93 -20h-27 v61z" />
<glyph unicode="~" horiz-adv-x="500" d="M10 243q23 49 48 78q34 38 87 38q42 0 113 -34q69 -32 95 -32q37 0 61 24q19 17 32 44l44 -26q-19 -44 -50 -73q-39 -39 -96 -39q-34 0 -108 34q-69 32 -95 32q-29 0 -52 -20q-19 -16 -35 -52z" />
<glyph unicode="&#xa2;" d="M98 339q0 96 62 158q49 49 124 59v99h60v-97q58 -7 105 -39v-86q-45 54 -105 61v-306q62 7 108 63v-86q-48 -35 -108 -42v-109h-60v111q-76 11 -127 61q-59 57 -59 153zM172 340q0 -71 44 -115q27 -27 68 -36v302q-40 -5 -69 -34q-43 -43 -43 -117z" />
<glyph unicode="&#xa3;" d="M54 26q24 36 47 55q36 30 82 30q28 42 28 86q0 30 -13 60h-112v56h86l-20 37q-44 81 -44 139q0 81 53 134t144 53q83 0 133 -50q60 -58 60 -159v-9h-73v10q0 70 -36 106q-32 32 -85 32q-52 0 -83 -31q-37 -35 -37 -88q0 -12 2.5 -25t5 -22.5t9 -24.5t10.5 -22.5t13 -25.5 l13 -26l14 -28h126v-56h-101q11 -29 11 -61q0 -48 -29 -94l59 -22q54 -21 70 -21q30 0 53 22q20 20 31 47l61 -36q-18 -42 -49 -68q-41 -35 -89 -35q-40 0 -86 18l-39 15q-50 19 -75 19q-30 0 -53 -18q-22 -17 -30 -36z" />
<glyph unicode="&#xa5;" d="M26 667h87l170 -298l172 298h87l-133 -227h109v-56h-141l-51 -88h192v-56h-198v-240h-74v240h-195v56h189l-51 88h-138v56h106z" />
<glyph unicode="&#xa8;" horiz-adv-x="500" d="M113 550q0 20 15 35t35 15t35 -15t15 -35t-15 -35t-35 -15t-35 15t-15 35zM287 550q0 20 15 35t35 15t35 -15t15 -35t-15 -35t-35 -15t-35 15t-15 35z" />
<glyph unicode="&#xa9;" horiz-adv-x="740" d="M25 333q0 143 101.5 244t243.5 101t243.5 -101t101.5 -244q0 -142 -101.5 -243t-243.5 -101t-243.5 101t-101.5 243zM81 333q0 -119 84.5 -203.5t204.5 -84.5t204.5 84.5t84.5 203.5q0 120 -84.5 204.5t-204.5 84.5t-204.5 -84.5t-84.5 -204.5zM185 328q0 88 59.5 147.5 t148.5 59.5q69 0 121 -38v-80q-24 30 -58 44t-64 14q-57 0 -97.5 -39.5t-40.5 -106.5q0 -68 41 -106t96 -38q75 0 126 61v-81q-55 -40 -124 -40q-90 0 -149 57t-59 146z" />
<glyph unicode="&#xab;" horiz-adv-x="430" d="M36 212l150 188l46 -37l-120 -151l120 -146l-46 -36zM184 212l150 188l46 -37l-120 -151l120 -146l-46 -36z" />
<glyph unicode="&#xad;" horiz-adv-x="320" d="M50 176v74h220v-74h-220z" />
<glyph unicode="&#xae;" horiz-adv-x="740" d="M27 332q0 147 98 245t245 98t245 -98t98 -245t-98 -245t-245 -98t-245 98t-98 245zM83 332q0 -123 82 -205t205 -82t205 82t82 205t-82 205t-205 82t-205 -82t-82 -205zM265 145v374h68q144 0 144 -107q0 -42 -27 -70.5t-70 -33.5l129 -163h-68l-122 158v-158h-54z M319 351h22q82 0 82 59q0 17 -6 29t-13.5 18t-20.5 9.5t-22 4t-22 0.5h-20v-120z" />
<glyph unicode="&#xb4;" horiz-adv-x="500" d="M207 521l105 145l74 -34l-134 -135z" />
<glyph unicode="&#xb8;" horiz-adv-x="500" d="M182 -183l84 131l66 -27l-101 -128z" />
<glyph unicode="&#xbb;" horiz-adv-x="430" d="M50 67l120 151l-120 146l46 36l150 -182l-150 -188zM198 67l120 151l-120 146l46 36l150 -182l-150 -188z" />
<glyph unicode="&#x2c6;" horiz-adv-x="500" d="M112 533l138 121l138 -121l-46 -36l-92 81l-92 -81z" />
<glyph unicode="&#x2da;" horiz-adv-x="500" d="M164 583q0 35 25.5 60.5t60.5 25.5t60.5 -25.5t25.5 -60.5t-25.5 -60.5t-60.5 -25.5t-60.5 25.5t-25.5 60.5zM208 583q0 -17 13 -29.5t29 -12.5t29 12.5t13 29.5t-13 29.5t-29 12.5t-29 -12.5t-13 -29.5z" />
<glyph unicode="&#x2dc;" horiz-adv-x="500" d="M96 531q16 27 34 45q25 24 57 24q30 0 70 -20q38 -20 56 -20t29 12q13 15 21 31l41 -34q-8 -21 -26 -39q-29 -30 -66 -30q-25 0 -69 21q-41 19 -55 19q-15 0 -29 -14q-11 -11 -21 -29z" />
<glyph unicode="&#x401;" horiz-adv-x="482" d="M86 0v667h346v-70h-272v-198h264v-70h-264v-259h272v-70h-346zM112 784q0 21 15 36t36 15t36 -15t15 -36t-15 -36t-36 -15t-36 15t-15 36zM302 784q0 21 15 36t36 15t36 -15t15 -36t-15 -36t-36 -15t-36 15t-15 36z" />
<glyph unicode="&#x402;" horiz-adv-x="646" d="M14 597v70h436v-70h-202v-212q71 23 137 23q120 0 175 -67q44 -54 44 -147q0 -112 -70 -163q-49 -37 -134 -37q-28 0 -68 6v70q28 -6 63 -6q61 0 93 27q40 34 40 104q0 63 -28 97q-39 46 -122 46q-64 0 -130 -23v-315h-74v597h-160z" />
<glyph unicode="&#x403;" horiz-adv-x="404" d="M86 0v667h304v-70h-230v-597h-74zM196 752l126 130l70 -45l-153 -117z" />
<glyph unicode="&#x404;" horiz-adv-x="645" d="M50 331q0 152 89.5 249.5t238.5 97.5q121 0 217 -66v-92q-36 36 -87 60q-64 28 -135 28q-101 0 -168.5 -65.5t-75.5 -162.5h386v-70h-389q-1 -110 73 -181t175 -71q75 0 144 33q47 23 77 54v-92q-101 -65 -221 -65q-148 0 -236 97t-88 246z" />
<glyph unicode="&#x405;" horiz-adv-x="518" d="M50 160l72 20q7 -50 40 -85q37 -37 96 -37q64 0 99 38.5t35 93.5q0 48 -33 78q-19 18 -80 46l-60 28q-61 28 -89 55q-46 44 -46 109q0 77 52.5 124.5t134.5 47.5q62 0 107 -30q41 -27 65 -74l-59 -39q-16 31 -39 50q-30 23 -75 23q-50 0 -81 -28.5t-31 -74.5 q0 -34 25 -58q20 -20 70 -42l64 -28q71 -31 103 -63q48 -48 48 -121q0 -91 -60 -148t-151 -57q-90 0 -145 54q-45 44 -62 118z" />
<glyph unicode="&#x406;" horiz-adv-x="246" d="M86 0v667h74v-667h-74z" />
<glyph unicode="&#x407;" horiz-adv-x="246" d="M15 784q0 21 13 36t32 15t32 -15t13 -36t-13 -36t-32 -15t-32 15t-13 36zM86 0v667h74v-667h-74zM141 784q0 21 13 36t32 15t32 -15t13 -36t-13 -36t-32 -15t-32 15t-13 36z" />
<glyph unicode="&#x408;" horiz-adv-x="306" d="M-46 37l41 58q34 -37 76 -37q31 0 50 19q25 25 25 108v482h74v-480q0 -36 -1.5 -57.5t-11 -50.5t-28.5 -49q-39 -42 -106 -42q-76 0 -119 49z" />
<glyph unicode="&#x409;" horiz-adv-x="922" d="M14 0v70q20 -6 37 -6q39 0 65 26q18 18 27 51.5t10 56.5t1 71v398h406v-277h90q230 0 230 -188q0 -94 -58.5 -148t-157.5 -54h-178v597h-258v-358q0 -47 -1 -70.5t-15.5 -66t-43.5 -68.5q-45 -40 -114 -40q-16 0 -40 6zM560 70h86q85 0 123 37q35 33 35 95q0 72 -54 101 q-31 17 -112 17h-78v-250z" />
<glyph unicode="&#x40a;" horiz-adv-x="938" d="M86 0v667h74v-277h342v277h74v-277h90q230 0 230 -188q0 -94 -58.5 -148t-157.5 -54h-178v320h-342v-320h-74zM576 70h86q85 0 123 37q35 33 35 95q0 72 -54 101q-31 17 -112 17h-78v-250z" />
<glyph unicode="&#x40b;" horiz-adv-x="678" d="M14 597v70h436v-70h-202v-196q93 7 138 7q119 0 165 -36q61 -47 61 -155v-217h-74v207q0 81 -40 110q-28 21 -116 21q-59 0 -134 -7v-331h-74v597h-160z" />
<glyph unicode="&#x40c;" d="M86 0v667h74v-286l284 286h100l-312 -311l322 -356h-102l-273 306l-19 -19v-287h-74zM240 752l126 130l70 -45l-153 -117z" />
<glyph unicode="&#x40e;" d="M8 667h90l208 -393l174 393h80l-301 -667h-80l85 186zM135 818l70 23q6 -19 18.5 -31.5t28 -17t23.5 -6t15 -1.5t15 1.5t23.5 6t28 17t18.5 31.5l70 -23q-4 -11 -11.5 -23t-24.5 -31t-48 -31t-71 -12t-71 12t-48 31t-24.5 31t-11.5 23z" />
<glyph unicode="&#x40f;" horiz-adv-x="658" d="M86 0v667h74v-597h338v597h74v-667h-208v-160h-70v160h-208z" />
<glyph unicode="&#x410;" horiz-adv-x="622" d="M8 0l307 699l299 -699h-82l-78 188h-284l-80 -188h-82zM199 258h226l-112 267z" />
<glyph unicode="&#x411;" horiz-adv-x="530" d="M86 0v667h331v-70h-257v-207h90q230 0 230 -188q0 -94 -58.5 -148t-157.5 -54h-178zM160 70h86q85 0 123 37q35 33 35 95q0 72 -54 101q-31 17 -112 17h-78v-250z" />
<glyph unicode="&#x412;" horiz-adv-x="530" d="M86 0v667h120q100 0 153 -42q60 -46 60 -138q0 -86 -66 -131q64 -16 95.5 -64.5t31.5 -103.5q0 -45 -19.5 -83t-48.5 -61q-56 -44 -160 -44h-166zM160 70h85q81 0 117 28q44 32 44 92q0 67 -57 98q-36 20 -113 20h-76v-238zM160 374h56q15 0 29 1.5t33.5 8t34 17.5 t24.5 33t10 51q0 31 -12 53.5t-27 33.5t-36 17t-32 7t-22 1h-58v-223z" />
<glyph unicode="&#x413;" horiz-adv-x="404" d="M86 0v667h304v-70h-230v-597h-74z" />
<glyph unicode="&#x414;" horiz-adv-x="640" d="M14 70q34 -1 62 24.5t44 65.5q24 61 24 175v332h406v-597h76v-210h-70v140h-472v-140h-70v210zM143 70h333v527h-258v-262q0 -123 -24 -186q-17 -45 -51 -79z" />
<glyph unicode="&#x415;" horiz-adv-x="482" d="M86 0v667h346v-70h-272v-198h264v-70h-264v-259h272v-70h-346z" />
<glyph unicode="&#x416;" horiz-adv-x="810" d="M14 0l288 356l-280 311h92l254 -286v286h74v-286l254 286h92l-280 -311l288 -356h-94l-244 305l-16 -18v-287h-74v287l-16 18l-244 -305h-94z" />
<glyph unicode="&#x417;" horiz-adv-x="576" d="M50 148l72 32q20 -56 66 -89t106 -33q61 0 102 28q54 38 54 107q0 131 -178 131h-60v70h60q66 0 101 32t35 81q0 43 -27 70q-30 31 -90 31q-84 0 -134 -72l-57 45q65 97 191 97q90 0 141 -47q52 -47 52 -123q0 -49 -25.5 -85.5t-66.5 -55.5q65 -15 99.5 -62t34.5 -110 q0 -104 -83 -163q-64 -44 -152 -44q-91 0 -151 46t-90 114z" />
<glyph unicode="&#x418;" horiz-adv-x="710" d="M86 -30v697h74v-511l464 539v-695h-74v509z" />
<glyph unicode="&#x419;" horiz-adv-x="710" d="M86 -30v697h74v-511l464 539v-695h-74v509zM200 818l70 23q6 -19 18.5 -31.5t28 -17t23.5 -6t15 -1.5t15 1.5t23.5 6t28 17t18.5 31.5l70 -23q-4 -11 -11.5 -23t-24.5 -31t-48 -31t-71 -12t-71 12t-48 31t-24.5 31t-11.5 23z" />
<glyph unicode="&#x41a;" d="M86 0v667h74v-286l284 286h100l-312 -311l322 -356h-102l-273 306l-19 -19v-287h-74z" />
<glyph unicode="&#x41b;" horiz-adv-x="646" d="M14 0v70q20 -6 37 -6q39 0 65 26q18 18 27 51.5t10 56.5t1 71v398h406v-667h-74v597h-258v-358q0 -47 -1 -70.5t-15.5 -66t-43.5 -68.5q-45 -40 -114 -40q-16 0 -40 6z" />
<glyph unicode="&#x41c;" horiz-adv-x="863" d="M63 0l111 704l256 -563l261 564l104 -705h-76l-63 464l-227 -492l-224 492l-66 -464h-76z" />
<glyph unicode="&#x41d;" horiz-adv-x="662" d="M86 0v667h74v-271h342v271h74v-667h-74v326h-342v-326h-74z" />
<glyph unicode="&#x41e;" horiz-adv-x="794" d="M50 333q0 148 101 246.5t246 98.5t246 -98.5t101 -246.5q0 -147 -100.5 -246t-246.5 -99t-246.5 99t-100.5 246zM126 333q0 -115 79 -195t192 -80t192 80t79 195t-79 195t-192 80t-192 -80t-79 -195z" />
<glyph unicode="&#x41f;" horiz-adv-x="662" d="M86 0v667h490v-667h-74v597h-342v-597h-74z" />
<glyph unicode="&#x420;" horiz-adv-x="456" d="M86 0v667h121q114 0 168 -47q61 -52 61 -143q0 -78 -52.5 -132.5t-158.5 -54.5h-65v-290h-74zM160 360h61q66 0 103.5 32t37.5 89q0 116 -147 116h-55v-237z" />
<glyph unicode="&#x421;" horiz-adv-x="646" d="M50 331q0 149 99.5 248t249.5 99q110 0 197 -66v-92q-40 40 -87 62q-57 26 -115 26q-115 0 -191.5 -80.5t-76.5 -197.5q0 -126 83.5 -199t185.5 -73q64 0 124 31q42 21 77 56v-92q-91 -65 -201 -65q-148 0 -246.5 99t-98.5 244z" />
<glyph unicode="&#x422;" horiz-adv-x="426" d="M14 597v70h398v-70h-162v-597h-74v597h-162z" />
<glyph unicode="&#x423;" d="M8 667h90l208 -393l174 393h80l-301 -667h-80l85 186z" />
<glyph unicode="&#x424;" horiz-adv-x="822" d="M50 354q0 35 7.5 68.5t29 69.5t54.5 62t88.5 43t126.5 17h18v80h74v-80h18q71 0 126.5 -17t88.5 -43t54.5 -62t29 -69.5t7.5 -68.5t-7.5 -68.5t-29 -69.5t-54.5 -62t-88.5 -43t-126.5 -17h-18v-94h-74v94h-18q-71 0 -126.5 17t-88.5 43t-54.5 62t-29 69.5t-7.5 68.5z M126 354q0 -35 10.5 -66t34.5 -60.5t71 -46.5t112 -17h20v380h-20q-65 0 -112 -17t-71 -46.5t-34.5 -60.5t-10.5 -66zM448 164h20q65 0 112 17t71 46.5t34.5 60.5t10.5 66t-10.5 66t-34.5 60.5t-71 46.5t-112 17h-20v-380z" />
<glyph unicode="&#x425;" horiz-adv-x="504" d="M14 0l197 345l-179 322h84l138 -251l142 251h84l-183 -322l193 -345h-84l-153 274l-155 -274h-84z" />
<glyph unicode="&#x426;" horiz-adv-x="662" d="M86 0v667h74v-597h338v597h74v-597h76v-210h-70v140h-492z" />
<glyph unicode="&#x427;" horiz-adv-x="590" d="M66 470v197h74v-187q0 -81 40 -110q28 -21 116 -21q59 0 134 7v311h74v-667h-74v286q-93 -7 -138 -7q-119 0 -165 36q-61 47 -61 155z" />
<glyph unicode="&#x428;" horiz-adv-x="922" d="M86 0v667h74v-597h264v597h74v-597h264v597h74v-667h-750z" />
<glyph unicode="&#x429;" horiz-adv-x="926" d="M86 0v667h74v-597h264v597h74v-597h264v597h74v-597h76v-210h-70v140h-756z" />
<glyph unicode="&#x42a;" horiz-adv-x="610" d="M14 597v70h234v-277h90q230 0 230 -188q0 -94 -58.5 -148t-157.5 -54h-178v597h-160zM248 70h86q85 0 123 37q35 33 35 95q0 72 -54 101q-31 17 -112 17h-78v-250z" />
<glyph unicode="&#x42b;" horiz-adv-x="710" d="M86 0v667h74v-277h90q230 0 230 -188q0 -94 -58.5 -148t-157.5 -54h-178zM160 70h86q85 0 123 37q35 33 35 95q0 72 -54 101q-31 17 -112 17h-78v-250zM550 0v667h74v-667h-74z" />
<glyph unicode="&#x42c;" horiz-adv-x="522" d="M86 0v667h74v-277h90q230 0 230 -188q0 -94 -58.5 -148t-157.5 -54h-178zM160 70h86q85 0 123 37q35 33 35 95q0 72 -54 101q-31 17 -112 17h-78v-250z" />
<glyph unicode="&#x42d;" horiz-adv-x="645" d="M50 53v92q30 -31 77 -54q69 -33 144 -33q101 0 175 71t73 181h-389v70h386q-8 97 -75.5 162.5t-168.5 65.5q-71 0 -135 -28q-51 -24 -87 -60v92q96 66 217 66q149 0 238.5 -97.5t89.5 -249.5q0 -149 -88 -246t-236 -97q-120 0 -221 65z" />
<glyph unicode="&#x42e;" horiz-adv-x="990" d="M86 0v667h74v-278h102q18 125 111.5 207t225.5 82q148 0 244.5 -97t96.5 -248q0 -149 -97 -247t-244 -98q-145 0 -240 97t-100 234h-99v-319h-74zM335 333q0 -117 76.5 -196t187.5 -79t188 79t77 196t-77 196t-188 79t-187.5 -79t-76.5 -196z" />
<glyph unicode="&#x42f;" horiz-adv-x="510" d="M30 0l196 296q-68 7 -112 42q-58 47 -58 136q0 82 46 133q54 60 166 60h156v-667h-74v292h-40l-190 -292h-90zM132 476q0 -59 38 -90q36 -28 102 -28h78v239h-72q-80 0 -114 -35q-32 -34 -32 -86z" />
<glyph unicode="&#x430;" horiz-adv-x="526" d="M42 208q0 102 58.5 159.5t143.5 57.5q90 0 142 -69v59h72v-415h-72v58q-54 -70 -142 -70q-84 0 -143 58t-59 162zM116 208q0 -69 36.5 -112.5t99.5 -43.5t100.5 45t37.5 110q0 74 -42 114t-96 40q-57 0 -96.5 -40.5t-39.5 -112.5z" />
<glyph unicode="&#x431;" horiz-adv-x="524" d="M42 254q0 261 118 342q9 6 19 11.5t21.5 10t19.5 8t22.5 7t20 5t22 5t20.5 4.5q40 9 58 21.5t25 31.5h80q-11 -37 -37.5 -62.5t-48 -34.5t-50.5 -16q-5 -1 -24 -5.5t-29 -7.5t-26 -8t-29 -12t-24 -15q-38 -29 -61.5 -80.5t-25.5 -109.5h2q45 76 151 76q93 0 154.5 -63 t61.5 -156q0 -94 -63 -156t-164 -62q-87 0 -143 52q-70 64 -70 214zM116 206q0 -72 43 -113t103 -41t103 41t43 113q0 73 -42.5 114t-103.5 41t-103.5 -41.5t-42.5 -113.5z" />
<glyph unicode="&#x432;" horiz-adv-x="430" d="M68 0v415h157q57 0 87 -24q36 -29 36 -78q0 -54 -45 -83q31 -8 52 -28q33 -32 33 -80q0 -60 -43 -94q-37 -28 -98 -28h-179zM140 64h89q46 0 65 14q24 18 24 46q0 30 -21 47q-19 15 -65 15h-92v-122zM140 246h76q29 0 46 12q20 15 20 43q0 25 -20 40q-15 10 -58 10h-64 v-105z" />
<glyph unicode="&#x433;" horiz-adv-x="318" d="M68 0v415h246v-66h-174v-349h-72z" />
<glyph unicode="&#x434;" horiz-adv-x="460" d="M4 66q52 1 77 54q17 35 17 110v185h292v-349h62v-176h-66v110h-316v-110h-66v176zM120 66h198v283h-148v-156q0 -83 -50 -127z" />
<glyph unicode="&#x435;" horiz-adv-x="481" d="M42 205q0 95 54.5 157.5t146.5 62.5q104 0 157 -76q42 -60 39 -156h-323q1 -63 39 -102t93 -39q49 0 85 30q28 24 43 57l60 -33q-21 -40 -51 -67q-57 -51 -138 -51q-84 0 -144.5 54.5t-60.5 162.5zM121 253h244q-9 49 -42.5 78.5t-79.5 29.5q-45 0 -79.5 -30.5 t-42.5 -77.5z" />
<glyph unicode="&#x436;" horiz-adv-x="596" d="M4 0l198 223l-180 192h84l156 -170v170h72v-170l156 170h84l-180 -192l198 -223h-90l-154 175l-14 -14v-161h-72v161l-14 14l-154 -175h-90z" />
<glyph unicode="&#x437;" horiz-adv-x="422" d="M42 94l62 26q11 -28 37 -47q28 -21 68 -21q47 0 70 16q29 19 29 58q0 32 -25 48q-21 14 -68 14h-42v66h35q38 0 54 11q22 14 22 38q0 28 -18 43q-17 15 -53 15q-31 0 -57 -16q-22 -14 -34 -36l-50 41q24 35 53 52q39 23 91 23q63 0 98 -29q36 -31 36 -79q0 -58 -47 -87 q30 -7 48 -27q29 -31 29 -76q0 -67 -54 -107q-44 -32 -118 -32q-66 0 -111 35q-34 25 -55 71z" />
<glyph unicode="&#x438;" horiz-adv-x="492" d="M68 -29v444h72v-274l284 306v-447h-72v277z" />
<glyph unicode="&#x439;" horiz-adv-x="492" d="M68 -29v444h72v-274l284 306v-447h-72v277zM104 594l60 23q18 -60 85 -60t85 60l60 -23q-16 -45 -54.5 -71t-90.5 -26t-90.5 26t-54.5 71z" />
<glyph unicode="&#x43a;" horiz-adv-x="422" d="M68 0v415h72v-170l168 170h88l-180 -185l202 -230h-94l-162 182l-22 -21v-161h-72z" />
<glyph unicode="&#x43b;" horiz-adv-x="450" d="M8 0v66q10 -2 16 -2q35 0 52 27q14 22 14 71v253h292v-415h-72v349h-148v-187q0 -81 -32 -120q-36 -44 -100 -44q-8 0 -22 2z" />
<glyph unicode="&#x43c;" horiz-adv-x="580" d="M20 0l100 447l172 -338l168 338l100 -447h-74l-55 257l-141 -286l-143 286l-53 -257h-74z" />
<glyph unicode="&#x43d;" horiz-adv-x="476" d="M68 0v415h72v-170h196v170h72v-415h-72v179h-196v-179h-72z" />
<glyph unicode="&#x43e;" horiz-adv-x="524" d="M42 206q0 95 62.5 157t157.5 62t157.5 -62t62.5 -157q0 -94 -62.5 -156t-157.5 -62t-157.5 62t-62.5 156zM116 206q0 -72 43 -113t103 -41t103 41t43 113q0 73 -42.5 114t-103.5 41t-103.5 -41.5t-42.5 -113.5z" />
<glyph unicode="&#x43f;" horiz-adv-x="470" d="M68 0v415h334v-415h-72v349h-190v-349h-72z" />
<glyph unicode="&#x440;" horiz-adv-x="526" d="M68 -230v645h72v-58q55 68 142 68q93 0 147.5 -65.5t54.5 -154.5q0 -90 -54 -153.5t-145 -63.5t-145 70v-288h-72zM136 206q0 -65 38.5 -109.5t100.5 -44.5q61 0 98 44.5t37 108.5q0 72 -41 114t-95 42t-96 -42t-42 -113z" />
<glyph unicode="&#x441;" horiz-adv-x="438" d="M42 205q0 95 63 157.5t159 62.5q72 0 129 -40v-86q-49 62 -130 62q-61 0 -104 -41.5t-43 -113.5t43 -113t103 -41q80 0 134 65v-86q-59 -43 -132 -43q-97 0 -159.5 61.5t-62.5 155.5z" />
<glyph unicode="&#x442;" horiz-adv-x="348" d="M8 349v66h332v-66h-130v-349h-72v349h-130z" />
<glyph unicode="&#x443;" horiz-adv-x="460" d="M8 415h82l147 -297l135 297h80l-305 -645h-80l132 269z" />
<glyph unicode="&#x444;" horiz-adv-x="650" d="M42 208q0 102 71 160q64 54 176 54v245h72v-245q112 0 176 -54q71 -58 71 -160q0 -103 -72 -161q-66 -54 -175 -54v-223h-72v223q-109 0 -175 54q-72 58 -72 161zM116 208q0 -80 58 -121q42 -30 115 -30v301q-71 0 -111 -26q-62 -39 -62 -124zM361 57q73 0 115 30 q58 41 58 121q0 85 -62 124q-40 26 -111 26v-301z" />
<glyph unicode="&#x445;" horiz-adv-x="454" d="M8 0l177 222l-151 193h88l107 -141l109 141h88l-152 -194l172 -221h-88l-131 169l-131 -169h-88z" />
<glyph unicode="&#x446;" horiz-adv-x="474" d="M68 0v415h72v-349h186v349h72v-349h68v-176h-66v110h-332z" />
<glyph unicode="&#x447;" horiz-adv-x="430" d="M56 286v129h72v-119q0 -34 9 -49q14 -27 63 -27q44 0 90 9v186h72v-415h-72v163q-59 -9 -98 -9q-68 0 -101 30q-35 31 -35 102z" />
<glyph unicode="&#x448;" horiz-adv-x="672" d="M68 0v415h72v-349h160v349h72v-349h160v349h72v-415h-536z" />
<glyph unicode="&#x449;" horiz-adv-x="680" d="M68 0v415h72v-349h160v349h72v-349h160v349h72v-349h68v-176h-66v110h-538z" />
<glyph unicode="&#x44a;" horiz-adv-x="430" d="M8 349v66h162v-159h74q86 0 126 -41q32 -32 32 -87q0 -58 -37 -93t-122 -35h-145v349h-90zM170 64h67q45 0 64 11q27 18 27 53q0 36 -26 52q-18 12 -64 12h-68v-128z" />
<glyph unicode="&#x44b;" horiz-adv-x="562" d="M68 0v415h72v-159h74q86 0 126 -41q32 -32 32 -87q0 -58 -37 -93t-122 -35h-145zM140 64h67q45 0 64 11q27 18 27 53q0 36 -26 52q-18 12 -64 12h-68v-128zM422 0v415h72v-415h-72z" />
<glyph unicode="&#x44c;" horiz-adv-x="400" d="M68 0v415h72v-159h74q86 0 126 -41q32 -32 32 -87q0 -58 -37 -93t-122 -35h-145zM140 64h67q45 0 64 11q27 18 27 53q0 36 -26 52q-18 12 -64 12h-68v-128z" />
<glyph unicode="&#x44d;" horiz-adv-x="423" d="M42 11v70q55 -29 117 -29q58 0 100 35.5t48 92.5h-219v64h219q-12 55 -53 86t-96 31q-58 0 -116 -27v70q52 21 113 21q105 0 165.5 -61t60.5 -159q0 -95 -61.5 -156t-159.5 -61q-62 0 -118 23z" />
<glyph unicode="&#x44e;" horiz-adv-x="690" d="M68 0v415h72v-170h75q10 70 56 118q59 62 157 62q96 0 158 -62t62 -157q0 -94 -62.5 -156t-157.5 -62q-109 0 -171 78q-40 50 -46 113h-71v-179h-72zM285 206q0 -73 42 -113.5t101 -40.5q60 0 103 41t43 113t-42.5 113.5t-103.5 41.5q-60 0 -101.5 -41.5t-41.5 -113.5z " />
<glyph unicode="&#x44f;" horiz-adv-x="408" d="M20 0l129 171q-6 0 -16.5 2t-30.5 10t-33 21q-33 31 -33 83q0 59 37 93q37 35 122 35h145v-415h-72v167h-44l-118 -167h-86zM110 289q0 -34 26 -50q19 -12 64 -12h68v124h-67q-47 0 -65 -11q-26 -17 -26 -51z" />
<glyph unicode="&#x451;" horiz-adv-x="481" d="M42 205q0 95 54.5 157.5t146.5 62.5q104 0 157 -76q42 -60 39 -156h-323q1 -63 39 -102t93 -39q49 0 85 30q28 24 43 57l60 -33q-21 -40 -51 -67q-57 -51 -138 -51q-84 0 -144.5 54.5t-60.5 162.5zM110 550q0 20 15 35t35 15t35 -15t15 -35t-15 -35t-35 -15t-35 15 t-15 35zM121 253h244q-9 49 -42.5 78.5t-79.5 29.5q-45 0 -79.5 -30.5t-42.5 -77.5zM284 550q0 20 15 35t35 15t35 -15t15 -35t-15 -35t-35 -15t-35 15t-15 35z" />
<glyph unicode="&#x452;" horiz-adv-x="470" d="M0 514v60h68v155h72v-155h200v-60h-200v-187q44 58 119 58q80 0 119 -57q24 -35 24 -111v-303q0 -75 -32 -109q-34 -35 -91 -35q-27 0 -51 9v70q25 -9 47 -9q32 0 46 22q9 15 9 60v293q0 51 -19 76q-23 30 -68 30q-46 0 -73 -32q-30 -35 -30 -112v-177h-72v514h-68z" />
<glyph unicode="&#x453;" horiz-adv-x="318" d="M68 0v415h246v-66h-174v-349h-72zM147 521l105 145l74 -34l-134 -135z" />
<glyph unicode="&#x454;" horiz-adv-x="438" d="M42 205q0 95 63 157.5t159 62.5q72 0 129 -40v-86q-52 62 -130 62q-51 0 -92.5 -31.5t-51.5 -85.5h217v-64h-218q7 -57 48 -92.5t96 -35.5q80 0 134 65v-86q-59 -43 -132 -43q-97 0 -159.5 61.5t-62.5 155.5z" />
<glyph unicode="&#x455;" horiz-adv-x="352" d="M36 94l62 26q25 -68 84 -68q33 0 50.5 20t17.5 46q0 14 -4.5 24.5t-15 18.5t-20 13t-27.5 13q-80 35 -101 61q-19 24 -19 61q0 54 33.5 85t87.5 31q79 0 114 -75l-59 -31q-17 42 -58 42q-21 0 -35.5 -12t-14.5 -35q0 -21 13.5 -31.5t53.5 -27.5q79 -33 104 -64 q22 -27 22 -67q0 -63 -40.5 -99.5t-102.5 -36.5q-12 0 -26 2.5t-38.5 11t-46.5 32.5t-34 60z" />
<glyph unicode="&#x456;" horiz-adv-x="208" d="M53 572q0 21 15 36t36 15t36 -15t15 -36t-15 -36t-36 -15t-36 15t-15 36zM68 0v415h72v-415h-72z" />
<glyph unicode="&#x457;" horiz-adv-x="208" d="M9 573q0 20 12.5 35t29.5 15t29.5 -15t12.5 -35t-12.5 -35t-29.5 -15t-29.5 15t-12.5 35zM68 0v415h72v-415h-72zM115 573q0 20 12.5 35t29.5 15t29.5 -15t12.5 -35t-12.5 -35t-29.5 -15t-29.5 15t-12.5 35z" />
<glyph unicode="&#x458;" horiz-adv-x="208" d="M53 572q0 21 15 36t36 15t36 -15t15 -36t-15 -36t-36 -15t-36 15t-15 36zM68 -230v645h72v-645h-72z" />
<glyph unicode="&#x459;" horiz-adv-x="642" d="M8 0v66q10 -2 16 -2q35 0 52 27q14 22 14 71v253h292v-159h74q86 0 126 -41q32 -32 32 -87q0 -58 -37 -93t-122 -35h-145v349h-148v-187q0 -81 -32 -120q-36 -44 -100 -44q-8 0 -22 2zM382 64h67q45 0 64 11q27 18 27 53q0 36 -26 52q-18 12 -64 12h-68v-128z" />
<glyph unicode="&#x45a;" horiz-adv-x="668" d="M68 0v415h72v-157h196v157h72v-159h74q86 0 126 -41q32 -32 32 -87q0 -58 -37 -93t-122 -35h-145v192h-196v-192h-72zM408 64h67q45 0 64 11q27 18 27 53q0 36 -26 52q-18 12 -64 12h-68v-128z" />
<glyph unicode="&#x45b;" horiz-adv-x="470" d="M0 514v60h68v155h72v-155h200v-60h-200v-187q44 58 119 58q80 0 119 -57q24 -35 24 -111v-217h-72v215q0 51 -19 76q-23 30 -68 30q-46 0 -73 -32q-30 -35 -30 -112v-177h-72v514h-68z" />
<glyph unicode="&#x45c;" horiz-adv-x="422" d="M68 0v415h72v-170l168 170h88l-180 -185l202 -230h-94l-162 182l-22 -21v-161h-72zM168 521l105 145l74 -34l-134 -135z" />
<glyph unicode="&#x45e;" horiz-adv-x="460" d="M8 415h82l147 -297l135 297h80l-305 -645h-80l132 269zM95 594l60 23q18 -60 85 -60t85 60l60 -23q-16 -45 -54.5 -71t-90.5 -26t-90.5 26t-54.5 71z" />
<glyph unicode="&#x45f;" horiz-adv-x="466" d="M68 0v415h72v-349h186v349h72v-415h-132v-120h-66v120h-132z" />
<glyph unicode="&#x462;" horiz-adv-x="610" d="M14 517v70h160v107h74v-107h180v-70h-180v-127h90q230 0 230 -188q0 -94 -58.5 -148t-157.5 -54h-178v517h-160zM248 70h86q85 0 123 37q35 33 35 95q0 72 -54 101q-31 17 -112 17h-78v-250z" />
<glyph unicode="&#x463;" horiz-adv-x="430" d="M8 349v66h90v252h72v-252h120v-66h-120v-93h74q86 0 126 -41q32 -32 32 -87q0 -58 -37 -93t-122 -35h-145v349h-90zM170 64h67q45 0 64 11q27 18 27 53q0 36 -26 52q-18 12 -64 12h-68v-128z" />
<glyph unicode="&#x472;" horiz-adv-x="792" d="M50 333q0 148 100.5 246.5t245.5 98.5t245.5 -98.5t100.5 -246.5q0 -147 -100.5 -246t-245.5 -99t-245.5 99t-100.5 246zM126 310q10 -112 88.5 -182t181.5 -70t181.5 70t88.5 182h-540zM129 380h534q-18 106 -96 167t-171 61t-171 -61t-96 -167z" />
<glyph unicode="&#x473;" horiz-adv-x="524" d="M42 206q0 95 62.5 157t157.5 62t157.5 -62t62.5 -157q0 -94 -62.5 -156t-157.5 -62t-157.5 62t-62.5 156zM118 180q5 -57 47 -92.5t97 -35.5t96.5 35.5t47.5 92.5h-288zM120 244h284q-10 55 -50.5 86t-91.5 31t-91.5 -31t-50.5 -86z" />
<glyph unicode="&#x474;" horiz-adv-x="556" d="M8 667h82l188 -509l188 509h82l-270 -707z" />
<glyph unicode="&#x475;" horiz-adv-x="424" d="M8 415h80l124 -280l124 280h80l-204 -442z" />
<glyph unicode="&#x490;" horiz-adv-x="404" d="M86 0v667h234v140h70v-210h-230v-597h-74z" />
<glyph unicode="&#x491;" horiz-adv-x="328" d="M68 0v415h180v110h66v-176h-174v-349h-72z" />
<glyph unicode="&#x492;" horiz-adv-x="404" d="M0 334v66h86v267h304v-70h-230v-197h136v-66h-136v-334h-74v334h-86z" />
<glyph unicode="&#x493;" horiz-adv-x="318" d="M0 188v60h68v167h246v-66h-174v-101h100v-60h-100v-188h-72v188h-68z" />
<glyph unicode="&#x494;" horiz-adv-x="558" d="M86 0v667h316v-70h-242v-212q71 23 137 23q120 0 175 -67q44 -54 44 -147q0 -112 -70 -163q-49 -37 -134 -37q-28 0 -68 6v70q28 -6 63 -6q61 0 93 27q40 34 40 104q0 63 -28 97q-39 46 -122 46q-64 0 -130 -23v-315h-74z" />
<glyph unicode="&#x495;" horiz-adv-x="430" d="M68 0v415h246v-66h-174v-113h30q110 0 167 -57q51 -53 51 -139q0 -109 -79 -182q-62 -57 -146 -66v70q54 7 96 48q53 50 53 131q0 66 -39 99q-34 30 -103 30h-30v-170h-72z" />
<glyph unicode="&#x496;" horiz-adv-x="810" d="M14 0l288 356l-280 311h92l254 -286v286h74v-286l254 286h92l-280 -311l231 -286h57v-210h-70v140h-24l-244 305l-16 -18v-287h-74v287l-16 18l-244 -305h-94z" />
<glyph unicode="&#x497;" horiz-adv-x="596" d="M4 0l198 223l-180 192h84l156 -170v170h72v-170l156 170h84l-180 -192l140 -157h58v-176h-66v110h-24l-154 175l-14 -14v-161h-72v161l-14 14l-154 -175h-90z" />
<glyph unicode="&#x498;" horiz-adv-x="576" d="M50 148l72 32q16 -45 47 -73q50 -49 128 -49q73 0 115 40q38 38 38 99q0 55 -36 88q-42 39 -142 39h-60v70h60q66 0 101 31q35 29 35 82q0 43 -27 70q-31 31 -90 31q-52 0 -88 -25q-28 -20 -46 -47l-57 45q32 47 78 72t109 25q96 0 149 -51q48 -46 48 -118q0 -51 -27 -89 q-27 -36 -65 -53q52 -12 87 -47q47 -47 47 -122q0 -84 -56 -143q-57 -59 -142 -65v-150h-70v150q-77 7 -135 57q-48 41 -73 101z" />
<glyph unicode="&#x499;" horiz-adv-x="422" d="M42 94l62 26q14 -30 37 -47q28 -21 68 -21q43 0 68 15q31 19 31 59q0 31 -25 48q-22 14 -68 14h-42v66h35q36 0 54 11q22 15 22 39q0 26 -18 42q-18 15 -56 15q-31 0 -54 -16t-34 -36l-50 41q24 35 53 52q37 23 95 23q59 0 94 -29q36 -30 36 -81q0 -31 -14 -54 q-11 -19 -33 -31q28 -7 48 -27q29 -29 29 -77q0 -52 -38 -92q-39 -41 -95 -44v-110h-66v110q-46 4 -84 33q-32 25 -55 71z" />
<glyph unicode="&#x49a;" d="M86 0v667h74v-286l284 286h100l-312 -311l259 -286h63v-210h-70v140h-32l-273 306l-19 -19v-287h-74z" />
<glyph unicode="&#x49b;" horiz-adv-x="422" d="M68 0v415h72v-170l168 170h88l-180 -185l144 -164h58v-176h-66v110h-28l-162 182l-22 -21v-161h-72z" />
<glyph unicode="&#x49c;" horiz-adv-x="644" d="M86 0v667h74v-291h80v140h66v-140l233 291h82l-255 -315l264 -352h-88l-236 310v-150h-66v150h-80v-310h-74z" />
<glyph unicode="&#x49d;" horiz-adv-x="450" d="M68 0v415h72v-170h50v100h60v-100l109 170h78l-131 -199l140 -216h-80l-116 185v-110h-60v110h-50v-185h-72z" />
<glyph unicode="&#x4a0;" horiz-adv-x="656" d="M14 597v70h234v-286l284 286h100l-312 -311l322 -356h-102l-273 306l-19 -19v-287h-74v597h-160z" />
<glyph unicode="&#x4a1;" horiz-adv-x="452" d="M8 349v66h162v-170l168 170h88l-180 -185l202 -230h-94l-162 182l-22 -21v-161h-72v349h-90z" />
<glyph unicode="&#x4a2;" horiz-adv-x="666" d="M86 0v667h74v-271h342v271h74v-597h76v-210h-70v140h-80v326h-342v-326h-74z" />
<glyph unicode="&#x4a3;" horiz-adv-x="484" d="M68 0v415h72v-170h196v170h72v-349h68v-176h-66v110h-74v179h-196v-179h-72z" />
<glyph unicode="&#x4a4;" horiz-adv-x="820" d="M86 0v667h74v-271h342v271h304v-70h-230v-597h-74v326h-342v-326h-74z" />
<glyph unicode="&#x4a5;" horiz-adv-x="586" d="M68 0v415h72v-170h196v170h246v-66h-174v-349h-72v179h-196v-179h-72z" />
<glyph unicode="&#x4aa;" horiz-adv-x="646" d="M50 331q0 144 94 244q98 103 255 103q117 0 197 -66v-92q-40 40 -87 62q-55 26 -115 26q-112 0 -190 -78q-78 -80 -78 -200q0 -117 76 -193q79 -79 193 -79q59 0 114 26q45 21 87 61v-92q-64 -49 -163 -63v-150h-70v150q-127 8 -217 99q-96 98 -96 242z" />
<glyph unicode="&#x4ab;" horiz-adv-x="438" d="M42 204q0 96 61 157q64 64 164 64q69 0 126 -40v-86q-50 62 -130 62q-63 0 -106 -43q-41 -41 -41 -112q0 -65 36 -105q43 -49 113 -49q77 0 131 65v-86q-40 -35 -94 -40v-111h-66v110q-80 6 -135 61q-59 59 -59 153z" />
<glyph unicode="&#x4ae;" horiz-adv-x="530" d="M8 667h86l170 -298l172 298h86l-221 -380v-287h-74v287z" />
<glyph unicode="&#x4af;" horiz-adv-x="424" d="M8 415h80l124 -280l124 280h80l-168 -364v-281h-72v281z" />
<glyph unicode="&#x4b0;" horiz-adv-x="530" d="M8 667h86l170 -298l172 298h86l-221 -380h190v-66h-190v-221h-74v221h-190v66h190z" />
<glyph unicode="&#x4b1;" horiz-adv-x="424" d="M8 415h80l124 -280l124 280h80l-168 -364v-51h120v-66h-120v-164h-72v164h-120v66h120v51z" />
<glyph unicode="&#x4b2;" horiz-adv-x="520" d="M14 0l197 345l-179 322h84l138 -251l142 251h84l-183 -322l154 -275h55v-210h-70v140h-30l-153 274l-155 -274h-84z" />
<glyph unicode="&#x4b3;" horiz-adv-x="454" d="M8 0l177 222l-151 193h88l107 -141l109 141h88l-152 -194l121 -155h51v-176h-66v110h-22l-131 169l-131 -169h-88z" />
<glyph unicode="&#x4b6;" horiz-adv-x="594" d="M66 470v197h74v-187q0 -81 40 -110q28 -21 116 -21q59 0 134 7v311h74v-597h76v-210h-70v140h-80v286q-93 -7 -138 -7q-119 0 -165 36q-61 47 -61 155z" />
<glyph unicode="&#x4b7;" horiz-adv-x="438" d="M56 286v129h72v-119q0 -34 9 -49q14 -27 63 -27q44 0 90 9v186h72v-349h68v-176h-66v110h-74v163q-59 -9 -98 -9q-68 0 -101 30q-35 31 -35 102z" />
<glyph unicode="&#x4b8;" horiz-adv-x="620" d="M66 470v197h74v-187q0 -81 40 -110q32 -24 98 -21v147h66v-146q65 2 116 6v311h74v-667h-74v286q-47 -3 -116 -6v-140h-66v139q-104 0 -151 36q-61 46 -61 155z" />
<glyph unicode="&#x4b9;" horiz-adv-x="460" d="M56 286v129h72v-119q0 -35 9 -49q17 -28 59 -26v104h60v-103q29 0 64 7v186h72v-415h-72v163q-30 -6 -64 -6v-102h-60v99q-66 -4 -105 30q-35 30 -35 102z" />
<glyph unicode="&#x4ba;" horiz-adv-x="590" d="M86 0v667h74v-266q93 7 138 7q119 0 165 -36q61 -47 61 -155v-217h-74v207q0 81 -40 110q-28 21 -116 21q-59 0 -134 -7v-331h-74z" />
<glyph unicode="&#x4bb;" horiz-adv-x="470" d="M68 0v729h72v-362q44 58 119 58q80 0 119 -57q24 -35 24 -111v-257h-72v255q0 51 -19 76q-23 30 -68 30q-46 0 -73 -32q-30 -35 -30 -112v-217h-72z" />
<glyph unicode="&#x4c0;" horiz-adv-x="246" d="M86 0v667h74v-667h-74z" />
<glyph unicode="&#x4c1;" horiz-adv-x="810" d="M14 0l288 356l-280 311h92l254 -286v286h74v-286l254 286h92l-280 -311l288 -356h-94l-244 305l-16 -18v-287h-74v287l-16 18l-244 -305h-94zM250 818l70 23q6 -19 18.5 -31.5t28 -17t23.5 -6t15 -1.5t15 1.5t23.5 6t28 17t18.5 31.5l70 -23q-4 -11 -11.5 -23t-24.5 -31 t-48 -31t-71 -12t-71 12t-48 31t-24.5 31t-11.5 23z" />
<glyph unicode="&#x4c2;" horiz-adv-x="596" d="M4 0l198 223l-180 192h84l156 -170v170h72v-170l156 170h84l-180 -192l198 -223h-90l-154 175l-14 -14v-161h-72v161l-14 14l-154 -175h-90zM153 594l60 23q18 -60 85 -60t85 60l60 -23q-16 -45 -54.5 -71t-90.5 -26t-90.5 26t-54.5 71z" />
<glyph unicode="&#x4c3;" horiz-adv-x="584" d="M86 0v667h74v-306l284 306h100l-260 -272q121 0 182 -61q76 -75 76 -226q0 -143 -67 -212q-54 -56 -151 -56q-58 0 -111 21l21 71q38 -22 86 -22q61 0 96 33q51 49 51 158q0 138 -70 193q-46 36 -123 36q-55 0 -114 -13v-317h-74z" />
<glyph unicode="&#x4c4;" horiz-adv-x="414" d="M68 0v415h72v-170l168 170h88l-182 -185q77 -5 123 -51q51 -51 51 -135q0 -113 -79 -186q-62 -57 -146 -66v70q54 7 96 48q53 51 53 128q0 67 -39 102q-35 30 -103 30h-30v-170h-72z" />
<glyph unicode="&#x4c7;" horiz-adv-x="662" d="M86 0v667h74v-271h342v271h74v-753q0 -79 -34 -113q-31 -31 -89 -31q-30 0 -53 9v72q19 -9 42 -9q30 0 44 13q16 15 16 55v416h-342v-326h-74z" />
<glyph unicode="&#x4c8;" horiz-adv-x="476" d="M68 0v415h72v-170h196v170h72v-501q0 -75 -32 -109q-34 -35 -91 -35q-27 0 -51 9v70q25 -9 47 -9q32 0 46 22q9 15 9 60v257h-196v-179h-72z" />
<glyph unicode="&#x4d0;" horiz-adv-x="622" d="M8 0l307 699l299 -699h-82l-78 188h-284l-80 -188h-82zM160 818l70 23q6 -19 18.5 -31.5t28 -17t23.5 -6t15 -1.5t15 1.5t23.5 6t28 17t18.5 31.5l70 -23q-4 -11 -11.5 -23t-24.5 -31t-48 -31t-71 -12t-71 12t-48 31t-24.5 31t-11.5 23zM199 258h226l-112 267z" />
<glyph unicode="&#x4d1;" horiz-adv-x="526" d="M42 208q0 102 58.5 159.5t143.5 57.5q90 0 142 -69v59h72v-415h-72v58q-54 -70 -142 -70q-84 0 -143 58t-59 162zM109 594l60 23q18 -60 85 -60t85 60l60 -23q-16 -45 -54.5 -71t-90.5 -26t-90.5 26t-54.5 71zM116 208q0 -69 36.5 -112.5t99.5 -43.5t100.5 45t37.5 110 q0 74 -42 114t-96 40q-57 0 -96.5 -40.5t-39.5 -112.5z" />
<glyph unicode="&#x4d2;" horiz-adv-x="622" d="M8 0l307 699l299 -699h-82l-78 188h-284l-80 -188h-82zM169 784q0 21 15 36t36 15t36 -15t15 -36t-15 -36t-36 -15t-36 15t-15 36zM199 258h226l-112 267zM359 784q0 21 15 36t36 15t36 -15t15 -36t-15 -36t-36 -15t-36 15t-15 36z" />
<glyph unicode="&#x4d3;" horiz-adv-x="526" d="M42 208q0 102 58.5 159.5t143.5 57.5q90 0 142 -69v59h72v-415h-72v58q-54 -70 -142 -70q-84 0 -143 58t-59 162zM103 550q0 20 15 35t35 15t35 -15t15 -35t-15 -35t-35 -15t-35 15t-15 35zM116 208q0 -69 36.5 -112.5t99.5 -43.5t100.5 45t37.5 110q0 74 -42 114t-96 40 q-57 0 -96.5 -40.5t-39.5 -112.5zM277 550q0 20 15 35t35 15t35 -15t15 -35t-15 -35t-35 -15t-35 15t-15 35z" />
<glyph unicode="&#x4d4;" horiz-adv-x="900" d="M14 0l297 667h293l29 -70h-269l83 -198h264l29 -70h-262l108 -259h271l29 -70h-348l-79 187h-284l-79 -187h-82zM207 257h223l-110 261z" />
<glyph unicode="&#x4d5;" horiz-adv-x="774" d="M42 123q0 65 49 101t124 36q70 0 119 -35q2 54 -19 88q-28 48 -99 48q-56 0 -128 -26v68q67 22 129 22q117 0 157 -84q52 84 160 84q91 0 144.5 -61.5t53.5 -163.5v-7h-324q2 -61 39.5 -101t91.5 -40q41 0 75 25t53 63l60 -36q-61 -116 -187 -116q-107 0 -163 83 q-47 -83 -156 -83q-77 0 -128 35t-51 100zM114 123q0 -28 24.5 -49.5t80.5 -21.5q57 0 84 22.5t27 51.5q0 26 -26.5 48t-82.5 22q-51 0 -79 -20.5t-28 -52.5zM413 253h245q-7 50 -41 79t-82 29q-46 0 -80 -29t-42 -79z" />
<glyph unicode="&#x4d6;" horiz-adv-x="482" d="M86 0v667h346v-70h-272v-198h264v-70h-264v-259h272v-70h-346zM105 818l70 23q6 -19 18.5 -31.5t28 -17t23.5 -6t15 -1.5t15 1.5t23.5 6t28 17t18.5 31.5l70 -23q-4 -11 -11.5 -23t-24.5 -31t-48 -31t-71 -12t-71 12t-48 31t-24.5 31t-11.5 23z" />
<glyph unicode="&#x4d7;" horiz-adv-x="481" d="M42 205q0 95 54.5 157.5t146.5 62.5q104 0 157 -76q42 -60 39 -156h-323q1 -63 39 -102t93 -39q49 0 85 30q28 24 43 57l60 -33q-21 -40 -51 -67q-57 -51 -138 -51q-84 0 -144.5 54.5t-60.5 162.5zM96 594l60 23q18 -60 85 -60t85 60l60 -23q-16 -45 -54.5 -71t-90.5 -26 t-90.5 26t-54.5 71zM121 253h244q-9 49 -42.5 78.5t-79.5 29.5q-45 0 -79.5 -30.5t-42.5 -77.5z" />
<glyph unicode="&#x4d8;" horiz-adv-x="756" d="M50 319v16h580q0 114 -77 193.5t-196 79.5q-96 0 -162 -56q-34 -28 -63 -69l-55 50q33 45 77 79q86 66 204 66q149 0 248.5 -99.5t99.5 -245.5t-98.5 -245.5t-245.5 -99.5q-83 0 -146.5 34t-101.5 86q-64 87 -64 211zM126 265q2 -52 27 -95q29 -51 83.5 -81.5 t120.5 -30.5q96 0 171 58.5t95 148.5h-497z" />
<glyph unicode="&#x4d9;" horiz-adv-x="482" d="M42 220h324q-1 63 -39 102t-94 39q-51 0 -85 -30q-28 -24 -43 -57l-60 33q21 40 51 67q56 51 138 51q84 0 145 -55t61 -162q0 -95 -55 -157.5t-147 -62.5q-103 0 -158 76q-45 64 -38 156zM116 160q8 -48 41 -78t81 -30q45 0 79.5 30.5t42.5 77.5h-244z" />
<glyph unicode="&#x4da;" horiz-adv-x="756" d="M50 319v16h580q0 114 -77 193.5t-196 79.5q-96 0 -162 -56q-34 -28 -63 -69l-55 50q33 45 77 79q86 66 204 66q149 0 248.5 -99.5t99.5 -245.5t-98.5 -245.5t-245.5 -99.5q-83 0 -146.5 34t-101.5 86q-64 87 -64 211zM126 265q2 -52 27 -95q29 -51 83.5 -81.5 t120.5 -30.5q96 0 171 58.5t95 148.5h-497zM214 784q0 21 15 36t36 15t36 -15t15 -36t-15 -36t-36 -15t-36 15t-15 36zM404 784q0 21 15 36t36 15t36 -15t15 -36t-15 -36t-36 -15t-36 15t-15 36z" />
<glyph unicode="&#x4db;" horiz-adv-x="482" d="M42 220h324q-1 63 -39 102t-94 39q-51 0 -85 -30q-28 -24 -43 -57l-60 33q21 40 51 67q56 51 138 51q84 0 145 -55t61 -162q0 -95 -55 -157.5t-147 -62.5q-103 0 -158 76q-45 64 -38 156zM105 550q0 20 15 35t35 15t35 -15t15 -35t-15 -35t-35 -15t-35 15t-15 35z M116 160q8 -48 41 -78t81 -30q45 0 79.5 30.5t42.5 77.5h-244zM279 550q0 20 15 35t35 15t35 -15t15 -35t-15 -35t-35 -15t-35 15t-15 35z" />
<glyph unicode="&#x4dc;" horiz-adv-x="810" d="M14 0l288 356l-280 311h92l254 -286v286h74v-286l254 286h92l-280 -311l288 -356h-94l-244 305l-16 -18v-287h-74v287l-16 18l-244 -305h-94zM259 784q0 21 15 36t36 15t36 -15t15 -36t-15 -36t-36 -15t-36 15t-15 36zM449 784q0 21 15 36t36 15t36 -15t15 -36t-15 -36 t-36 -15t-36 15t-15 36z" />
<glyph unicode="&#x4dd;" horiz-adv-x="596" d="M4 0l198 223l-180 192h84l156 -170v170h72v-170l156 170h84l-180 -192l198 -223h-90l-154 175l-14 -14v-161h-72v161l-14 14l-154 -175h-90zM161 550q0 20 15 35t35 15t35 -15t15 -35t-15 -35t-35 -15t-35 15t-15 35zM335 550q0 20 15 35t35 15t35 -15t15 -35t-15 -35 t-35 -15t-35 15t-15 35z" />
<glyph unicode="&#x4de;" horiz-adv-x="576" d="M50 148l72 32q20 -56 66 -89t106 -33q61 0 102 28q54 38 54 107q0 131 -178 131h-60v70h60q66 0 101 32t35 81q0 43 -27 70q-30 31 -90 31q-84 0 -134 -72l-57 45q65 97 191 97q90 0 141 -47q52 -47 52 -123q0 -49 -25.5 -85.5t-66.5 -55.5q65 -15 99.5 -62t34.5 -110 q0 -104 -83 -163q-64 -44 -152 -44q-91 0 -151 46t-90 114zM144 784q0 21 15 36t36 15t36 -15t15 -36t-15 -36t-36 -15t-36 15t-15 36zM334 784q0 21 15 36t36 15t36 -15t15 -36t-15 -36t-36 -15t-36 15t-15 36z" />
<glyph unicode="&#x4df;" horiz-adv-x="422" d="M42 94l62 26q11 -28 37 -47q28 -21 68 -21q47 0 70 16q29 19 29 58q0 32 -25 48q-21 14 -68 14h-42v66h35q38 0 54 11q22 14 22 38q0 28 -18 43q-17 15 -53 15q-31 0 -57 -16q-22 -14 -34 -36l-50 41q24 35 53 52q39 23 91 23q63 0 98 -29q36 -31 36 -79q0 -58 -47 -87 q30 -7 48 -27q29 -31 29 -76q0 -67 -54 -107q-44 -32 -118 -32q-66 0 -111 35q-34 25 -55 71zM83 550q0 20 15 35t35 15t35 -15t15 -35t-15 -35t-35 -15t-35 15t-15 35zM257 550q0 20 15 35t35 15t35 -15t15 -35t-15 -35t-35 -15t-35 15t-15 35z" />
<glyph unicode="&#x4e2;" horiz-adv-x="710" d="M86 -30v697h74v-511l464 539v-695h-74v509zM200 733v64h320v-64h-320z" />
<glyph unicode="&#x4e3;" horiz-adv-x="492" d="M68 -29v444h72v-274l284 306v-447h-72v277zM95 513v60h302v-60h-302z" />
<glyph unicode="&#x4e4;" horiz-adv-x="710" d="M86 -30v697h74v-511l464 539v-695h-74v509zM214 784q0 21 15 36t36 15t36 -15t15 -36t-15 -36t-36 -15t-36 15t-15 36zM404 784q0 21 15 36t36 15t36 -15t15 -36t-15 -36t-36 -15t-36 15t-15 36z" />
<glyph unicode="&#x4e5;" horiz-adv-x="492" d="M68 -29v444h72v-274l284 306v-447h-72v277zM109 550q0 20 15 35t35 15t35 -15t15 -35t-15 -35t-35 -15t-35 15t-15 35zM283 550q0 20 15 35t35 15t35 -15t15 -35t-15 -35t-35 -15t-35 15t-15 35z" />
<glyph unicode="&#x4e6;" horiz-adv-x="794" d="M50 333q0 148 101 246.5t246 98.5t246 -98.5t101 -246.5q0 -147 -100.5 -246t-246.5 -99t-246.5 99t-100.5 246zM126 333q0 -115 79 -195t192 -80t192 80t79 195t-79 195t-192 80t-192 -80t-79 -195zM251 784q0 21 15 36t36 15t36 -15t15 -36t-15 -36t-36 -15t-36 15 t-15 36zM441 784q0 21 15 36t36 15t36 -15t15 -36t-15 -36t-36 -15t-36 15t-15 36z" />
<glyph unicode="&#x4e7;" horiz-adv-x="524" d="M42 206q0 95 62.5 157t157.5 62t157.5 -62t62.5 -157q0 -94 -62.5 -156t-157.5 -62t-157.5 62t-62.5 156zM116 206q0 -72 43 -113t103 -41t103 41t43 113q0 73 -42.5 114t-103.5 41t-103.5 -41.5t-42.5 -113.5zM125 550q0 20 15 35t35 15t35 -15t15 -35t-15 -35t-35 -15 t-35 15t-15 35zM299 550q0 20 15 35t35 15t35 -15t15 -35t-15 -35t-35 -15t-35 15t-15 35z" />
<glyph unicode="&#x4e8;" horiz-adv-x="792" d="M50 333q0 148 100.5 246.5t245.5 98.5t245.5 -98.5t100.5 -246.5q0 -147 -100.5 -246t-245.5 -99t-245.5 99t-100.5 246zM126 310q10 -112 88.5 -182t181.5 -70t181.5 70t88.5 182h-540zM129 380h534q-18 106 -96 167t-171 61t-171 -61t-96 -167z" />
<glyph unicode="&#x4e9;" horiz-adv-x="524" d="M42 206q0 95 62.5 157t157.5 62t157.5 -62t62.5 -157q0 -94 -62.5 -156t-157.5 -62t-157.5 62t-62.5 156zM118 180q5 -57 47 -92.5t97 -35.5t96.5 35.5t47.5 92.5h-288zM120 244h284q-10 55 -50.5 86t-91.5 31t-91.5 -31t-50.5 -86z" />
<glyph unicode="&#x4ea;" horiz-adv-x="792" d="M50 333q0 148 100.5 246.5t245.5 98.5t245.5 -98.5t100.5 -246.5q0 -147 -100.5 -246t-245.5 -99t-245.5 99t-100.5 246zM126 310q10 -112 88.5 -182t181.5 -70t181.5 70t88.5 182h-540zM129 380h534q-18 106 -96 167t-171 61t-171 -61t-96 -167zM251 784q0 21 15 36 t36 15t36 -15t15 -36t-15 -36t-36 -15t-36 15t-15 36zM441 784q0 21 15 36t36 15t36 -15t15 -36t-15 -36t-36 -15t-36 15t-15 36z" />
<glyph unicode="&#x4eb;" horiz-adv-x="524" d="M42 206q0 95 62.5 157t157.5 62t157.5 -62t62.5 -157q0 -94 -62.5 -156t-157.5 -62t-157.5 62t-62.5 156zM118 180q5 -57 47 -92.5t97 -35.5t96.5 35.5t47.5 92.5h-288zM120 244h284q-10 55 -50.5 86t-91.5 31t-91.5 -31t-50.5 -86zM125 550q0 20 15 35t35 15t35 -15 t15 -35t-15 -35t-35 -15t-35 15t-15 35zM299 550q0 20 15 35t35 15t35 -15t15 -35t-15 -35t-35 -15t-35 15t-15 35z" />
<glyph unicode="&#x4ee;" d="M8 667h90l208 -393l174 393h80l-301 -667h-80l85 186zM135 733v64h320v-64h-320z" />
<glyph unicode="&#x4ef;" horiz-adv-x="460" d="M8 415h82l147 -297l135 297h80l-305 -645h-80l132 269zM79 513v60h302v-60h-302z" />
<glyph unicode="&#x4f0;" d="M8 667h90l208 -393l174 393h80l-301 -667h-80l85 186zM149 784q0 21 15 36t36 15t36 -15t15 -36t-15 -36t-36 -15t-36 15t-15 36zM339 784q0 21 15 36t36 15t36 -15t15 -36t-15 -36t-36 -15t-36 15t-15 36z" />
<glyph unicode="&#x4f1;" horiz-adv-x="460" d="M8 415h82l147 -297l135 297h80l-305 -645h-80l132 269zM103 550q0 20 15 35t35 15t35 -15t15 -35t-15 -35t-35 -15t-35 15t-15 35zM277 550q0 20 15 35t35 15t35 -15t15 -35t-15 -35t-35 -15t-35 15t-15 35z" />
<glyph unicode="&#x4f2;" d="M8 667h90l208 -393l174 393h80l-301 -667h-80l85 186zM168 746l120 136l70 -40l-147 -122zM318 746l120 136l70 -40l-147 -122z" />
<glyph unicode="&#x4f3;" horiz-adv-x="460" d="M8 415h82l147 -297l135 297h80l-305 -645h-80l132 269zM124 521l106 145l72 -32l-137 -136zM258 521l106 145l70 -32l-135 -136z" />
<glyph unicode="&#x4f4;" horiz-adv-x="590" d="M66 470v197h74v-187q0 -81 40 -110q28 -21 116 -21q59 0 134 7v311h74v-667h-74v286q-93 -7 -138 -7q-119 0 -165 36q-61 47 -61 155zM144 784q0 21 15 36t36 15t36 -15t15 -36t-15 -36t-36 -15t-36 15t-15 36zM334 784q0 21 15 36t36 15t36 -15t15 -36t-15 -36t-36 -15 t-36 15t-15 36z" />
<glyph unicode="&#x4f5;" horiz-adv-x="430" d="M56 286v129h72v-119q0 -34 9 -49q14 -27 63 -27q44 0 90 9v186h72v-415h-72v163q-59 -9 -98 -9q-68 0 -101 30q-35 31 -35 102zM73 550q0 20 15 35t35 15t35 -15t15 -35t-15 -35t-35 -15t-35 15t-15 35zM247 550q0 20 15 35t35 15t35 -15t15 -35t-15 -35t-35 -15t-35 15 t-15 35z" />
<glyph unicode="&#x4f8;" horiz-adv-x="710" d="M86 0v667h74v-277h90q230 0 230 -188q0 -94 -58.5 -148t-157.5 -54h-178zM160 70h86q85 0 123 37q35 33 35 95q0 72 -54 101q-31 17 -112 17h-78v-250zM209 784q0 21 15 36t36 15t36 -15t15 -36t-15 -36t-36 -15t-36 15t-15 36zM399 784q0 21 15 36t36 15t36 -15t15 -36 t-15 -36t-36 -15t-36 15t-15 36zM550 0v667h74v-667h-74z" />
<glyph unicode="&#x4f9;" horiz-adv-x="562" d="M68 0v415h72v-159h74q86 0 126 -41q32 -32 32 -87q0 -58 -37 -93t-122 -35h-145zM140 64h67q45 0 64 11q27 18 27 53q0 36 -26 52q-18 12 -64 12h-68v-128zM144 550q0 20 15 35t35 15t35 -15t15 -35t-15 -35t-35 -15t-35 15t-15 35zM318 550q0 20 15 35t35 15t35 -15 t15 -35t-15 -35t-35 -15t-35 15t-15 35zM422 0v415h72v-415h-72z" />
<glyph unicode="&#x2000;" horiz-adv-x="441" />
<glyph unicode="&#x2001;" horiz-adv-x="882" />
<glyph unicode="&#x2002;" horiz-adv-x="441" />
<glyph unicode="&#x2003;" horiz-adv-x="882" />
<glyph unicode="&#x2004;" horiz-adv-x="294" />
<glyph unicode="&#x2005;" horiz-adv-x="220" />
<glyph unicode="&#x2006;" horiz-adv-x="147" />
<glyph unicode="&#x2007;" horiz-adv-x="147" />
<glyph unicode="&#x2008;" horiz-adv-x="110" />
<glyph unicode="&#x2009;" horiz-adv-x="176" />
<glyph unicode="&#x200a;" horiz-adv-x="49" />
<glyph unicode="&#x2010;" horiz-adv-x="320" d="M50 176v74h220v-74h-220z" />
<glyph unicode="&#x2011;" horiz-adv-x="320" d="M50 176v74h220v-74h-220z" />
<glyph unicode="&#x2012;" horiz-adv-x="320" d="M50 176v74h220v-74h-220z" />
<glyph unicode="&#x2013;" horiz-adv-x="580" d="M70 181v64h440v-64h-440z" />
<glyph unicode="&#x2014;" horiz-adv-x="800" d="M70 181v64h660v-64h-660z" />
<glyph unicode="&#x2018;" horiz-adv-x="264" d="M58 460l101 226l47 -19l-83 -231z" />
<glyph unicode="&#x2019;" horiz-adv-x="264" d="M58 460l81 231l67 -24l-101 -226z" />
<glyph unicode="&#x201a;" horiz-adv-x="308" d="M58 -133l81 231l67 -24l-101 -226z" />
<glyph unicode="&#x201c;" horiz-adv-x="410" d="M58 460l101 226l47 -19l-83 -231zM204 460l101 226l47 -19l-81 -231z" />
<glyph unicode="&#x201d;" horiz-adv-x="410" d="M58 460l81 231l67 -24l-101 -226zM204 460l83 231l65 -24l-101 -226z" />
<glyph unicode="&#x201e;" horiz-adv-x="454" d="M58 -133l81 231l67 -24l-101 -226zM204 -133l83 231l65 -24l-101 -226z" />
<glyph unicode="&#x2026;" horiz-adv-x="746" d="M75 40q0 20 15 35t35 15t35 -15t15 -35t-15 -35t-35 -15t-35 15t-15 35zM323 40q0 20 15 35t35 15t35 -15t15 -35t-15 -35t-35 -15t-35 15t-15 35zM571 40q0 20 15 35t35 15t35 -15t15 -35t-15 -35t-35 -15t-35 15t-15 35z" />
<glyph unicode="&#x202f;" horiz-adv-x="176" />
<glyph unicode="&#x2039;" horiz-adv-x="282" d="M36 212l150 188l46 -37l-120 -151l120 -146l-46 -36z" />
<glyph unicode="&#x203a;" horiz-adv-x="282" d="M50 67l120 151l-120 146l46 36l150 -182l-150 -188z" />
<glyph unicode="&#x205f;" horiz-adv-x="220" />
<glyph unicode="&#x20ac;" d="M-8 230l26 66h34q-5 41 1 78h-61l26 66h43q21 100 96 169t192 69q99 0 179 -56l-33 -67q-63 53 -151 53q-39 0 -72.5 -12.5t-54.5 -30.5t-37.5 -42t-25 -43.5t-13.5 -39.5h319l-26 -66h-305q-6 -39 -1 -78h281l-26 -66h-244q15 -76 70 -124t137 -48q100 0 182 77v-92 q-82 -55 -186 -55q-122 0 -195 69.5t-88 172.5h-67z" />
<glyph unicode="&#x2122;" horiz-adv-x="722" d="M4 621v46h230v-46h-90v-334h-50v334h-90zM270 287l65 404l143 -315l147 315l61 -404h-46l-35 257l-127 -276l-125 276l-37 -257h-46z" />
<glyph unicode="&#x25fc;" horiz-adv-x="415" d="M0 0v415h415v-415h-415z" />
</font>
</defs>
</svg>
